<?xml version="1.0" encoding="iso-8859-1"?>

<svg version="1.1" id="Ebene_1" xmlns="http://www.w3.org/2000/svg" xmlns:xlink="http://www.w3.org/1999/xlink" x="0px" y="0px"
	 viewBox="0 0 200 200" style="enable-background:new 0 0 200 200;" xml:space="preserve">
<g>
	<path style="fill:#29ABE2;" d="M182,94.744c-6.856,9.117-15.78,15.599-26.054,20.303c-15.202,6.96-30.238,4.909-45.019-1.312
		c-6.065-2.553-11.817-5.841-17.767-8.677c-4.435-2.115-8.94-4.087-13.449-6.043c-11.954-5.184-23.037-2.623-33.491,4.109
		c-3.726,2.4-7.167,5.26-10.641,8.031c-5.793,4.62-11.187,3.652-14.948-2.778c-0.283-0.484-0.672-0.905-1.012-1.355
		c0-1.444,0-2.889,0-4.333c3.51-3.559,6.771-7.411,10.572-10.625c15.904-13.445,33.814-17.769,53.69-10.456
		c8.069,2.969,15.786,6.901,23.635,10.456c4.367,1.978,8.636,4.175,13.021,6.109c12.762,5.629,24.629,3.22,35.788-4.332
		c3.279-2.219,6.372-4.725,9.455-7.218c6.635-5.366,11.643-4.311,15.486,3.347c0.205,0.408,0.488,0.778,0.735,1.165
		C182,92.337,182,93.54,182,94.744z"/>
	<path style="fill:#29ABE2;" d="M19.618,148.908c4.27-6.957,10.902-11.351,17.395-15.834c19.347-13.357,39.1-9.945,58.815-1.016
		c7.64,3.46,15.019,7.493,22.559,11.177c14.27,6.971,27.458,4.498,39.8-4.757c2.979-2.234,5.874-4.58,8.81-6.871
		c4.568-3.563,8.129-3.314,12.009,0.836c3.256,3.483,3.543,8.999-0.016,12.356c-17.842,16.83-35.907,26.213-62.399,16.953
		c-7.425-2.595-14.374-6.537-21.605-9.715c-6.898-3.032-13.704-6.444-20.867-8.661c-10.088-3.123-19.469-0.078-28.015,5.541
		c-3.499,2.301-6.997,4.805-9.871,7.813c-5.182,5.423-13.121,3.583-15.874-3.061c-0.172-0.414-0.491-0.768-0.741-1.149
		C19.618,151.316,19.618,150.112,19.618,148.908z"/>
	<path style="fill:#29ABE2;" d="M182,49.246c-19.564,21.814-43.413,31.082-72.146,18.199c-8.192-3.673-16.018-8.157-24.158-11.956
		c-7.317-3.415-14.892-6.3-23.232-4.83c-6.959,1.227-13.265,4.104-18.909,8.363c-3.069,2.317-6.02,4.79-9.095,7.099
		c-4.131,3.102-8.661,2.566-12.197-1.334c-2.911-3.211-3.106-8.654,0.25-11.787C34.129,42.156,47.133,33.673,63.43,32.162
		c9.019-0.836,17.67,1.649,25.841,5.305c7.323,3.277,14.396,7.113,21.583,10.695c9.974,4.97,20.386,8.005,31.615,6.098
		c3.459-0.588,7.007-1.81,10.02-3.583c4.114-2.42,7.871-5.504,11.577-8.552c8.381-6.894,12.388-6.33,17.934,2.788
		C182,46.357,182,47.801,182,49.246z"/>
</g>
</svg>
