<?xml version="1.0" encoding="iso-8859-1"?>

<svg version="1.1" id="Ebene_1" xmlns="http://www.w3.org/2000/svg" xmlns:xlink="http://www.w3.org/1999/xlink" x="0px" y="0px"
	 viewBox="0 0 1200 200" style="enable-background:new 0 0 1200 200;" xml:space="preserve">
<g>
	<path style="fill:#333333;" d="M271.273,113.67h-23.82l-18.178-33.923v33.923h-24.342V34.197h28.834l26.118,47.828l24.029-47.828
		h28.73v96.733h-24.447V80.946L271.273,113.67z"/>
	<path style="fill:#333333;" d="M320.166,59.729c0-2.876,0.452-5.832,1.358-8.87c0.904-3.036,2.176-5.772,3.813-8.211
		c1.635-2.437,3.604-4.454,5.902-6.053c2.298-1.598,4.875-2.397,7.731-2.397H388.7c2.855,0,5.433,0.8,7.731,2.397
		c2.298,1.599,4.266,3.617,5.903,6.053c1.636,2.438,2.889,5.175,3.761,8.211c0.87,3.038,1.306,5.994,1.306,8.87v28.529
		c0,2.877-0.436,5.813-1.306,8.811c-0.872,2.997-2.125,5.714-3.761,8.15c-1.637,2.439-3.604,4.456-5.903,6.054
		c-2.298,1.6-4.876,2.397-7.731,2.397h-49.729c-2.856,0-5.433-0.798-7.731-2.397c-2.298-1.598-4.267-3.614-5.902-6.054
		c-1.638-2.437-2.909-5.154-3.813-8.15c-0.906-2.997-1.358-5.934-1.358-8.811V59.729z M347.851,56.133
		c-0.976,0-1.533,0.281-1.672,0.839c-0.14,0.56-0.208,1.399-0.208,2.517v29.967c0,0.641,0.068,1.18,0.208,1.618
		c0.139,0.44,0.696,0.659,1.672,0.659h31.968c0.975,0,1.531-0.219,1.672-0.659c0.139-0.438,0.209-0.978,0.209-1.618V59.489
		c0-1.118-0.07-1.957-0.209-2.517c-0.141-0.558-0.697-0.839-1.672-0.839H347.851z"/>
	<path style="fill:#333333;" d="M483.456,34.197c2.855,0,5.433,0.8,7.731,2.397c2.298,1.599,4.266,3.617,5.903,6.053
		c1.636,2.438,2.889,5.175,3.761,8.211c0.87,3.038,1.306,5.994,1.306,8.87v28.529c0,2.877-0.436,5.813-1.306,8.811
		c-0.872,2.997-2.125,5.714-3.761,8.15c-1.637,2.439-3.604,4.456-5.903,6.054c-2.298,1.6-4.876,2.397-7.731,2.397h-68.534V34.197
		H483.456z M439.264,91.734h35.312c0.975,0,1.531-0.219,1.672-0.659c0.139-0.438,0.209-0.978,0.209-1.618V59.849
		c-0.141-1.277-0.245-2.218-0.313-2.817c-0.07-0.6-0.593-0.899-1.567-0.899h-35.312V91.734z"/>
	<path style="fill:#333333;" d="M578.003,85.021h-42.52v4.675c0,0.641,0.068,1.139,0.208,1.499c0.139,0.359,0.696,0.539,1.672,0.539
		h59.549v21.936h-68.43c-2.856,0-5.433-0.798-7.731-2.397c-2.298-1.598-4.267-3.614-5.902-6.054
		c-1.638-2.437-2.909-5.154-3.813-8.15c-0.906-2.997-1.358-5.934-1.358-8.811V59.729c0-2.876,0.452-5.832,1.358-8.87
		c0.904-3.036,2.176-5.772,3.813-8.211c1.635-2.437,3.604-4.454,5.902-6.053c2.298-1.598,4.875-2.397,7.731-2.397h68.43v21.936
		h-59.549c-0.976,0-1.499,0.299-1.567,0.899c-0.07,0.599-0.174,1.54-0.313,2.817v3.117h42.52V85.021z"/>
	<path style="fill:#333333;" d="M679.028,34.197c2.716,0,5.171,0.839,7.365,2.517c2.193,1.678,4.074,3.776,5.642,6.293
		c1.567,2.518,2.769,5.274,3.604,8.271c0.835,2.997,1.253,5.814,1.253,8.451c0,3.677-0.558,7.033-1.671,10.069
		c-1.115,3.038-2.664,5.693-4.649,7.971c-1.985,2.277-4.336,4.135-7.052,5.574c-2.717,1.438-5.678,2.397-8.88,2.877l-0.313,0.959
		l25.178,26.491h-35.416l-29.462-31.286V63.206h35.521c0.766,0,1.27-0.42,1.515-1.259c0.243-0.839,0.365-1.577,0.365-2.218
		c0-0.798-0.261-1.618-0.783-2.457c-0.522-0.839-1.133-1.259-1.828-1.259h-40.535v57.657h-24.447V34.197H679.028z"/>
	<path style="fill:#333333;" d="M797.186,34.197v79.473h-32.908l-34.998-46.509v46.509h-24.343V34.197h33.745l34.162,46.509V34.197
		H797.186z"/>
	<path style="fill:#29ABE2;" d="M963.504,131.051h-27.581L915.969,95.33h-0.836l-9.82,18.34h-59.131l42.52-79.473h23.716
		L963.504,131.051z M913.88,91.254L901.761,67.88c-0.07-0.558-0.35-0.918-0.836-1.079c-0.209-0.079-0.384-0.12-0.522-0.12
		c-0.07,0-0.209,0.041-0.418,0.12L887.03,91.254H913.88z"/>
	<path style="fill:#29ABE2;" d="M960.264,34.197h24.76v79.473h-24.76V34.197z"/>
	<path style="fill:#29ABE2;" d="M1067.661,34.197c2.716,0,5.171,0.839,7.365,2.517c2.193,1.678,4.074,3.776,5.642,6.293
		c1.567,2.518,2.769,5.274,3.604,8.271c0.835,2.997,1.253,5.814,1.253,8.451c0,3.677-0.558,7.033-1.671,10.069
		c-1.115,3.038-2.664,5.693-4.649,7.971c-1.985,2.277-4.336,4.135-7.052,5.574c-2.717,1.438-5.678,2.397-8.88,2.877l-0.313,0.959
		l25.178,26.491h-35.416l-29.462-31.286V63.206h35.521c0.766,0,1.27-0.42,1.515-1.259c0.243-0.839,0.365-1.577,0.365-2.218
		c0-0.798-0.261-1.618-0.783-2.457c-0.522-0.839-1.133-1.259-1.828-1.259h-40.535v57.657h-24.447V34.197H1067.661z"/>
</g>
<g>
	<path style="fill:#29ABE2;" d="M321.121,161.286v-26.817h13.112v27.114c0.035,0.318,0.098,0.635,0.187,0.951
		c0.088,0.318,0.364,0.477,0.826,0.477h30.382v10.881h-34.913c-1.458,0-2.771-0.396-3.944-1.189
		c-1.172-0.792-2.177-1.793-3.012-3.003c-0.835-1.208-1.484-2.557-1.945-4.043C321.351,164.17,321.121,162.713,321.121,161.286z"/>
	<path style="fill:#29ABE2;" d="M413.973,134.469v26.817c0,1.427-0.222,2.884-0.666,4.37c-0.445,1.486-1.084,2.835-1.919,4.043
		c-0.835,1.21-1.839,2.211-3.012,3.003c-1.173,0.794-2.488,1.189-3.944,1.189H379.06c-1.458,0-2.771-0.396-3.944-1.189
		c-1.172-0.792-2.177-1.793-3.012-3.003c-0.835-1.208-1.484-2.557-1.945-4.043c-0.462-1.486-0.693-2.943-0.693-4.37v-26.817h13.166
		v27.174c0,0.317,0.035,0.624,0.107,0.922c0.071,0.297,0.354,0.446,0.853,0.446h16.311c0.497,0,0.781-0.149,0.853-0.446
		c0.071-0.298,0.106-0.604,0.106-0.922v-27.174H413.973z M389.721,130.842h-13.166v-10.881h13.166V130.842z M407.15,130.842h-13.166
		v-10.881h13.166V130.842z"/>
	<path style="fill:#29ABE2;" d="M452.671,159.681h-21.748v14.211h-13.112v-39.423h44.507v10.882h-31.342v3.389h21.694V159.681z"/>
	<path style="fill:#29ABE2;" d="M466.156,134.469h44.507v10.882h-15.724v28.541H482.52v-28.541h-16.364V134.469z"/>
	<path style="fill:#29ABE2;" d="M549.361,159.681h-21.694v2.318c0,0.318,0.035,0.565,0.107,0.744
		c0.071,0.178,0.354,0.268,0.853,0.268h30.382v10.881h-34.913c-1.458,0-2.771-0.396-3.944-1.189
		c-1.172-0.792-2.177-1.793-3.012-3.003c-0.835-1.208-1.484-2.557-1.945-4.043c-0.462-1.486-0.693-2.943-0.693-4.37v-14.152
		c0-1.427,0.23-2.893,0.693-4.399c0.461-1.506,1.11-2.863,1.945-4.073c0.835-1.209,1.839-2.209,3.012-3.003
		c1.173-0.792,2.487-1.189,3.944-1.189h34.913v10.882h-30.382c-0.498,0-0.765,0.148-0.799,0.446
		c-0.036,0.297-0.089,0.764-0.16,1.396v1.546h21.694V159.681z"/>
	<path style="fill:#29ABE2;" d="M609.913,134.469v39.423h-16.791l-17.856-23.07v23.07h-12.419v-39.423h17.217l17.43,23.071v-23.071
		H609.913z"/>
	<path style="fill:#333333;" d="M683.043,134.469v39.423h-16.791l-17.856-23.07v23.07h-12.419v-39.423h17.217l17.43,23.071v-23.071
		H683.043z"/>
	<path style="fill:#333333;" d="M721.739,159.681h-21.693v2.318c0,0.318,0.034,0.565,0.106,0.744
		c0.07,0.178,0.354,0.268,0.853,0.268h30.383v10.881h-34.913c-1.458,0-2.772-0.396-3.944-1.189
		c-1.173-0.792-2.178-1.793-3.012-3.003c-0.836-1.208-1.484-2.557-1.945-4.043c-0.463-1.486-0.693-2.943-0.693-4.37v-14.152
		c0-1.427,0.23-2.893,0.693-4.399c0.461-1.506,1.109-2.863,1.945-4.073c0.834-1.209,1.839-2.209,3.012-3.003
		c1.172-0.792,2.486-1.189,3.944-1.189h34.913v10.882h-30.383c-0.498,0-0.765,0.148-0.8,0.446c-0.035,0.297-0.089,0.764-0.159,1.396
		v1.546h21.693V159.681z"/>
	<path style="fill:#333333;" d="M766.62,134.469h13.112v26.817c0,1.427-0.223,2.884-0.667,4.37s-1.084,2.835-1.919,4.043
		c-0.835,1.21-1.839,2.211-3.011,3.003c-1.173,0.794-2.488,1.189-3.945,1.189h-25.371c-1.458,0-2.772-0.396-3.944-1.189
		c-1.173-0.792-2.178-1.793-3.012-3.003c-0.836-1.208-1.484-2.557-1.945-4.043c-0.463-1.486-0.693-2.943-0.693-4.37v-26.817h13.166
		v27.412c0,0.317,0.034,0.585,0.106,0.803c0.07,0.218,0.354,0.327,0.853,0.327h16.311c0.497,0,0.781-0.109,0.853-0.327
		s0.107-0.485,0.107-0.803V134.469z"/>
	<path style="fill:#333333;" d="M840.762,134.469c1.457,0,2.772,0.397,3.945,1.189c1.172,0.794,2.176,1.794,3.011,3.003
		c0.835,1.21,1.475,2.567,1.919,4.073c0.444,1.507,0.667,2.973,0.667,4.399v14.152c0,1.427-0.223,2.884-0.667,4.37
		s-1.084,2.835-1.919,4.043c-0.835,1.21-1.839,2.211-3.011,3.003c-1.173,0.794-2.488,1.189-3.945,1.189h-34.966v-39.423H840.762z
		 M818.215,163.011h18.017c0.497,0,0.781-0.109,0.853-0.327s0.107-0.485,0.107-0.803v-14.688c-0.072-0.633-0.125-1.1-0.16-1.396
		c-0.036-0.298-0.303-0.446-0.8-0.446h-18.017V163.011z"/>
	<path style="fill:#333333;" d="M889,159.681h-21.693v2.318c0,0.318,0.034,0.565,0.106,0.744c0.07,0.178,0.354,0.268,0.853,0.268
		h30.383v10.881h-34.913c-1.458,0-2.772-0.396-3.944-1.189c-1.173-0.792-2.178-1.793-3.012-3.003
		c-0.836-1.208-1.484-2.557-1.945-4.043c-0.463-1.486-0.693-2.943-0.693-4.37v-14.152c0-1.427,0.23-2.893,0.693-4.399
		c0.461-1.506,1.109-2.863,1.945-4.073c0.834-1.209,1.839-2.209,3.012-3.003c1.172-0.792,2.486-1.189,3.944-1.189h34.913v10.882
		h-30.383c-0.498,0-0.765,0.148-0.8,0.446c-0.035,0.297-0.089,0.764-0.159,1.396v1.546H889V159.681z"/>
	<path style="fill:#333333;" d="M937.345,159.681h-21.747v14.211h-13.112v-39.423h44.508v10.882h-31.342v3.389h21.693V159.681z"/>
	<path style="fill:#333333;" d="M951.203,134.469h12.633v39.423h-12.633V134.469z"/>
	<path style="fill:#333333;" d="M1015.007,134.469v39.423h-16.791l-17.856-23.07v23.07H967.94v-39.423h17.217l17.43,23.071v-23.071
		H1015.007z"/>
	<path style="fill:#333333;" d="M1019.217,134.469h12.633v39.423h-12.633V134.469z"/>
	<path style="fill:#333333;" d="M1070.813,159.681h-21.693v2.318c0,0.318,0.034,0.565,0.106,0.744
		c0.07,0.178,0.354,0.268,0.853,0.268h30.383v10.881h-34.913c-1.458,0-2.772-0.396-3.944-1.189
		c-1.173-0.792-2.178-1.793-3.012-3.003c-0.836-1.208-1.484-2.557-1.945-4.043c-0.463-1.486-0.693-2.943-0.693-4.37v-14.152
		c0-1.427,0.23-2.893,0.693-4.399c0.461-1.506,1.109-2.863,1.945-4.073c0.834-1.209,1.839-2.209,3.012-3.003
		c1.172-0.792,2.486-1.189,3.944-1.189h34.913v10.882h-30.383c-0.498,0-0.765,0.148-0.8,0.446c-0.035,0.297-0.089,0.764-0.159,1.396
		v1.546h21.693V159.681z"/>
	<path style="fill:#333333;" d="M1122.356,134.469c1.386,0,2.639,0.417,3.758,1.249s2.079,1.873,2.879,3.122
		c0.799,1.248,1.412,2.616,1.839,4.103c0.426,1.486,0.64,2.884,0.64,4.191c0,1.824-0.285,3.489-0.854,4.995
		c-0.568,1.507-1.358,2.824-2.371,3.954c-1.014,1.13-2.213,2.052-3.599,2.765c-1.386,0.714-2.896,1.189-4.53,1.428l-0.16,0.476
		l12.846,13.141h-18.069l-15.031-15.52v-9.514h18.123c0.391,0,0.647-0.208,0.772-0.624c0.124-0.416,0.187-0.782,0.187-1.101
		c0-0.396-0.133-0.802-0.399-1.219c-0.267-0.416-0.578-0.624-0.933-0.624h-20.682v28.601h-12.473v-39.423H1122.356z"/>
	<path style="fill:#333333;" d="M1135.575,134.469h44.508v10.882h-15.725v28.541h-12.419v-28.541h-16.364V134.469z"/>
</g>
<g>
	<path style="fill:#29ABE2;" d="M184,95.744c-6.856,9.117-15.78,15.599-26.054,20.303c-15.202,6.96-30.238,4.909-45.019-1.312
		c-6.065-2.553-11.817-5.841-17.767-8.677c-4.435-2.115-8.94-4.087-13.449-6.043c-11.954-5.184-23.037-2.623-33.491,4.109
		c-3.726,2.4-7.167,5.26-10.641,8.031c-5.793,4.62-11.187,3.652-14.948-2.778c-0.283-0.484-0.672-0.905-1.012-1.355
		c0-1.444,0-2.889,0-4.333c3.51-3.559,6.771-7.411,10.572-10.625c15.904-13.445,33.814-17.769,53.69-10.456
		c8.069,2.969,15.786,6.901,23.635,10.456c4.367,1.978,8.636,4.175,13.021,6.109c12.762,5.629,24.629,3.22,35.788-4.332
		c3.279-2.219,6.372-4.725,9.455-7.218c6.635-5.366,11.643-4.311,15.486,3.347c0.205,0.408,0.488,0.778,0.735,1.165
		C184,93.337,184,94.54,184,95.744z"/>
	<path style="fill:#29ABE2;" d="M21.618,149.908c4.27-6.957,10.902-11.351,17.395-15.834c19.347-13.357,39.1-9.945,58.815-1.016
		c7.64,3.46,15.019,7.493,22.559,11.177c14.27,6.971,27.458,4.498,39.8-4.757c2.979-2.234,5.874-4.58,8.81-6.871
		c4.568-3.563,8.129-3.314,12.009,0.836c3.256,3.483,3.543,8.999-0.016,12.356c-17.842,16.83-35.907,26.213-62.399,16.953
		c-7.425-2.595-14.374-6.537-21.605-9.715c-6.898-3.032-13.704-6.444-20.867-8.661c-10.088-3.123-19.469-0.078-28.015,5.541
		c-3.499,2.301-6.997,4.805-9.871,7.813c-5.182,5.423-13.121,3.583-15.874-3.061c-0.172-0.414-0.491-0.768-0.741-1.149
		C21.618,152.316,21.618,151.112,21.618,149.908z"/>
	<path style="fill:#29ABE2;" d="M184,50.246c-19.564,21.814-43.413,31.082-72.146,18.199c-8.192-3.673-16.018-8.157-24.158-11.956
		c-7.317-3.415-14.892-6.3-23.232-4.83c-6.959,1.227-13.265,4.104-18.909,8.363c-3.069,2.317-6.02,4.79-9.095,7.099
		c-4.131,3.102-8.661,2.566-12.197-1.334c-2.911-3.211-3.106-8.654,0.25-11.787C36.129,43.156,49.133,34.673,65.43,33.162
		c9.019-0.836,17.67,1.649,25.841,5.305c7.323,3.277,14.396,7.113,21.583,10.695c9.974,4.97,20.386,8.005,31.615,6.098
		c3.459-0.588,7.007-1.81,10.02-3.583c4.114-2.42,7.871-5.504,11.577-8.552c8.381-6.894,12.388-6.33,17.934,2.788
		C184,47.357,184,48.801,184,50.246z"/>
</g>
</svg>
