<?xml version="1.0" encoding="iso-8859-1"?>
<!-- Created with Fritzing (http://www.fritzing.org/) -->
<svg version="1.1" id="Ebene_1" xmlns:svg="http://www.w3.org/2000/svg"
	 xmlns="http://www.w3.org/2000/svg" xmlns:xlink="http://www.w3.org/1999/xlink" x="0px" y="0px" viewBox="0 0 154.2 139.612"
	 style="enable-background:new 0 0 154.2 139.612;" xml:space="preserve">
<g>
	
		<path id="path4272" image-rendering="auto" text-rendering="auto" color-rendering="auto" shape-rendering="auto" style="fill-rule:evenodd;clip-rule:evenodd;fill:#333333;" d="
		M41.816,4.065l-4.464,1.711L65.55,79.364l4.607-0.579l3.272-28.141l70.525-27.333l-1.728-4.458L69.012,47.228l-2.481,21.337
		L41.816,4.065z"/>
	
		<path id="path4274" image-rendering="auto" text-rendering="auto" color-rendering="auto" shape-rendering="auto" style="fill-rule:evenodd;clip-rule:evenodd;fill:#333333;" d="
		M107.515,60.514l-4.623,0.5l-2.558,20.139l-86.907,27.053l1.421,4.565l89.843-27.966l1.68-13.227
		c2.064,5.808,4.27,12.006,8.633,24.321c3.03,8.553,6.092,17.213,8.46,23.947c2.369,6.735,4.125,11.824,4.269,12.306l4.58-1.374
		c-0.371-1.238-1.968-5.777-4.339-12.518c-2.37-6.741-5.433-15.403-8.464-23.958C113.447,77.193,107.515,60.514,107.515,60.514z"/>
	<path id="rect4257" style="fill:#1C1C1C;" d="M18.582,0c-4.88,0-8.809,3.929-8.809,8.809v121.994c0,4.88,3.929,8.809,8.809,8.809
		H145.39c4.88,0,8.809-3.929,8.809-8.809V8.809c0-4.88-3.929-8.809-8.809-8.809H18.582z M85.037,3.254
		c38.517,1.59,68.47,32.375,67.085,68.946c-1.385,36.571-33.59,65.234-72.128,64.195c-38.537-1.039-68.977-31.39-68.173-67.976
		l0.076-2.01C13.864,29.861,46.521,1.663,85.037,3.254z"/>
	<path id="path4165" style="fill-rule:evenodd;clip-rule:evenodd;fill:#1C1C1C;" d="M82.176,50.617c0,0,0.717-15.571-0.516-23.211
		c-1.089-6.747-6.018-19.601-6.018-19.601s11.599-1.445,17.365-0.86c6.182,0.627,18.053,4.642,18.053,4.642
		s-4.055,15.191-7.221,22.352c-2.938,6.645-10.832,18.913-10.832,18.913L82.176,50.617z"/>
	<path id="path4165-2" style="fill:none;" d="M82.579,50.199c0,0,0.717-15.571-0.516-23.211c-1.089-6.747-6.018-19.601-6.018-19.601
		s11.599-1.445,17.366-0.86c6.182,0.627,18.053,4.642,18.053,4.642s-4.055,15.191-7.221,22.352
		c-2.938,6.645-10.832,18.913-10.832,18.913L82.579,50.199z"/>
	<path id="path4165-3" style="fill-rule:evenodd;clip-rule:evenodd;fill:#1C1C1C;" d="M100.429,56.893
		c0,0,12.205-9.696,17.152-15.648c4.368-5.256,10.813-17.42,10.813-17.42s8.715,7.791,12.064,12.521
		c3.592,5.07,8.37,16.656,8.37,16.656s-14.112,6.931-21.59,9.252c-6.938,2.154-21.373,4.271-21.373,4.271L100.429,56.893z"/>
	<path id="path4165-3-6" style="fill-rule:evenodd;clip-rule:evenodd;fill:#1C1C1C;" d="M106.88,70.95
		c0,0,14.748,5.046,22.428,5.999c6.783,0.842,20.502-0.293,20.502-0.293s-1.859,11.541-4.033,16.912
		c-2.332,5.759-9.509,16.034-9.509,16.034s-13.449-8.144-19.438-13.187c-5.557-4.68-15.127-15.691-15.127-15.691L106.88,70.95z"/>
	<path id="path4165-3-6-7" style="fill-rule:evenodd;clip-rule:evenodd;fill:#1C1C1C;" d="M94.911,85.809
		c0,0,5.154,14.71,9.153,21.337c3.532,5.851,12.907,15.931,12.907,15.931s-10.219,5.675-15.785,7.288
		c-5.969,1.728-18.48,2.441-18.48,2.441s-1.916-15.605-1.656-23.431c0.242-7.261,2.979-21.59,2.979-21.59L94.911,85.809z"/>
	<path id="path4165-3-6-7-5" style="fill-rule:evenodd;clip-rule:evenodd;fill:#1C1C1C;" d="M73.991,85.491
		c0,0-6.64,14.103-8.434,21.631c-1.584,6.649-1.968,20.409-1.968,20.409s-11.265-3.119-16.365-5.872
		c-5.467-2.953-14.888-11.217-14.888-11.217s9.576-12.47,15.249-17.867c5.264-5.008,17.262-13.306,17.262-13.306L73.991,85.491z"/>
	<path id="path4165-3-6-7-5-3" style="fill-rule:evenodd;clip-rule:evenodd;fill:#1C1C1C;" d="M59.84,76.08
		c0,0-15.151,3.665-22.141,6.986c-6.173,2.933-17.136,11.259-17.136,11.259s-4.631-10.733-5.681-16.432
		c-1.127-6.11-0.592-18.631-0.592-18.631s15.719-0.355,23.479,0.683c7.201,0.963,21.188,5.111,21.188,5.111L59.84,76.08z"/>
	<path id="path4165-3-6-7-5-3-5" style="fill-rule:evenodd;clip-rule:evenodd;fill:#1C1C1C;" d="M66.063,58.693
		c0,0-11.295-10.743-17.875-14.816c-5.811-3.597-18.751-8.293-18.751-8.293s6.507-9.71,10.727-13.684
		c4.523-4.26,15.334-10.599,15.334-10.599S64.318,24.316,67.654,31.4c3.096,6.572,7.194,20.574,7.194,20.574L66.063,58.693z"/>
	<path id="path4163" style="fill:#1C1C1C;" d="M110.877,68.473c0.31,14.256-11.433,26.082-26.299,26.487
		c-14.867,0.405-27.291-10.764-27.825-25.013c-0.534-14.25,11.021-26.244,25.88-26.864c14.859-0.62,27.457,10.367,28.216,24.608"/>
	<path id="path4165-3-61" style="fill:none;" d="M100.106,56.284c0,0,12.205-9.696,17.152-15.648
		c4.368-5.256,10.814-17.42,10.814-17.42s8.714,7.791,12.063,12.521c3.592,5.07,8.37,16.656,8.37,16.656s-14.112,6.931-21.59,9.252
		c-6.938,2.154-21.372,4.271-21.372,4.271L100.106,56.284z"/>
	<path id="path4165-3-6-0" style="fill:none;" d="M107.835,72.15c0,0,14.748,5.046,22.428,5.999
		c6.783,0.842,20.502-0.293,20.502-0.293s-1.859,11.54-4.034,16.912c-2.331,5.759-9.508,16.033-9.508,16.033
		s-13.449-8.143-19.438-13.187c-5.557-4.68-15.127-15.691-15.127-15.691L107.835,72.15z"/>
	<path id="path4165-3-6-7-2" style="fill:none;" d="M95.915,87.704c0,0,5.154,14.711,9.153,21.337
		c3.532,5.851,12.908,15.931,12.908,15.931s-10.22,5.675-15.786,7.288c-5.969,1.728-18.48,2.441-18.48,2.441
		s-1.916-15.605-1.656-23.431c0.242-7.261,2.978-21.591,2.978-21.591L95.915,87.704z"/>
	<path id="path4163-3" style="fill:none;" d="M111.199,68.082c0.31,14.256-11.432,26.082-26.299,26.487
		C70.034,94.973,57.61,83.805,57.075,69.555c-0.534-14.25,11.021-26.244,25.879-26.864c14.859-0.62,27.457,10.367,28.215,24.608"/>
	<path id="path4165-3-6-7-5-37" style="fill:none;" d="M73.445,85.836c0,0-6.64,14.103-8.434,21.631
		c-1.584,6.649-1.968,20.409-1.968,20.409s-11.265-3.119-16.365-5.872c-5.467-2.953-14.888-11.217-14.888-11.217
		s9.576-12.47,15.248-17.867c5.264-5.008,17.262-13.306,17.262-13.306L73.445,85.836z"/>
	<path id="path4165-3-6-7-5-3-59" style="fill:none;" d="M59.338,76.599c0,0-15.151,3.666-22.141,6.986
		c-6.173,2.933-17.136,11.259-17.136,11.259s-4.631-10.733-5.682-16.432c-1.127-6.111-0.591-18.631-0.591-18.631
		s15.719-0.355,23.479,0.683c7.201,0.963,21.188,5.111,21.188,5.111L59.338,76.599z"/>
	<path id="path4165-3-6-7-5-3-5-7" style="fill:none;" d="M65.333,59.112c0,0-11.295-10.743-17.875-14.816
		c-5.811-3.597-18.751-8.293-18.751-8.293s6.507-9.71,10.726-13.684c4.523-4.26,15.334-10.599,15.334-10.599
		s8.821,13.015,12.157,20.098c3.096,6.572,7.194,20.574,7.194,20.574L65.333,59.112z"/>
	<path id="path357" style="fill-rule:evenodd;clip-rule:evenodd;fill:#292929;" d="M14.849,38.071L26.396,20.75L14.849,9.684V38.071
		z"/>
	<path id="path4281-6" style="fill-rule:evenodd;clip-rule:evenodd;fill:#292929;" d="M49.728,3.079l-17.094,11.88L21.347,3.628
		L49.728,3.079z"/>
	<path id="path4281-2" style="fill-rule:evenodd;clip-rule:evenodd;fill:#292929;" d="M150.887,37.765L139.34,20.444l11.547-11.066
		V37.765z"/>
	<path id="path4281-6-9" style="fill-rule:evenodd;clip-rule:evenodd;fill:#292929;" d="M116.008,2.773l17.094,11.88l11.287-11.331
		L116.008,2.773z"/>
	<path id="path4281-2-1" style="fill-rule:evenodd;clip-rule:evenodd;fill:#292929;" d="M116.614,135.182l17.254-11.647L145,135.018
		L116.614,135.182z"/>
	<path id="path4281-6-9-2" style="fill-rule:evenodd;clip-rule:evenodd;fill:#292929;" d="M151.404,100.101l-11.781,17.162
		l11.395,11.222L151.404,100.101z"/>
	<path id="path4281-2-1-7" style="fill-rule:evenodd;clip-rule:evenodd;fill:#292929;" d="M48.843,136.682l-17.254-11.647
		l-11.132,11.483L48.843,136.682z"/>
	<path id="path4281-6-9-2-0" style="fill-rule:evenodd;clip-rule:evenodd;fill:#292929;" d="M14.053,101.601l11.781,17.162
		l-11.396,11.222L14.053,101.601z"/>
	<path id="path4352" style="fill:#292929;" d="M22.553,130.511c0.029,1.255-1.067,2.296-2.454,2.332
		c-1.387,0.036-2.546-0.947-2.596-2.202c-0.05-1.255,1.028-2.31,2.415-2.365c1.386-0.055,2.561,0.912,2.632,2.166"/>
	<path id="path4352-9" style="fill:#292929;" d="M147.998,128.725c0.029,1.255-1.067,2.297-2.454,2.332
		c-1.387,0.036-2.546-0.948-2.596-2.202c-0.05-1.255,1.029-2.311,2.415-2.365c1.386-0.054,2.561,0.913,2.632,2.166"/>
	<path id="path4352-9-3" style="fill:#292929;" d="M147.285,8.437c0.029,1.255-1.066,2.296-2.453,2.332
		c-1.387,0.036-2.546-0.948-2.596-2.202c-0.05-1.254,1.028-2.311,2.414-2.365c1.387-0.055,2.562,0.913,2.633,2.167"/>
	<path id="path4352-9-3-6" style="fill:#292929;" d="M22.423,8.921c0.029,1.255-1.067,2.296-2.454,2.332
		c-1.387,0.036-2.546-0.948-2.596-2.202c-0.05-1.255,1.028-2.311,2.415-2.365c1.386-0.055,2.562,0.913,2.632,2.167"/>
	<path id="path4352-9-3-6-0" style="fill:#333333;" d="M85.214,69.537c0.029,1.255-1.067,2.296-2.454,2.332
		c-1.387,0.036-2.546-0.948-2.596-2.202c-0.05-1.255,1.028-2.311,2.415-2.365c1.386-0.055,2.562,0.913,2.632,2.167"/>
	<path id="path4352-9-3-6-0-6" style="fill:none;" d="M85.936,70.259c0.029,1.255-1.067,2.296-2.454,2.332
		c-1.387,0.036-2.546-0.948-2.596-2.202c-0.05-1.255,1.028-2.311,2.414-2.365c1.386-0.055,2.562,0.913,2.632,2.167"/>
</g>
</svg>
