<?xml version="1.0" encoding="utf-8"?>
<!-- Created with Fritzing (http://www.fritzing.org/) -->
<svg version="1.1" id="Ebene_1" xmlns:svg="http://www.w3.org/2000/svg"
	 xmlns="http://www.w3.org/2000/svg" xmlns:xlink="http://www.w3.org/1999/xlink" x="0px" y="0px" viewBox="0 0 210.1 96.9"
	 style="enable-background:new 0 0 210.1 96.9;" xml:space="preserve">
<style type="text/css">
	.st0{fill:#0D4C75;}
	.st1{fill:#9A916C;}
	.st2{fill:#FFFFFF;}
	.st3{fill:#CDCCCC;}
	.st4{fill:#3D55A5;}
	.st5{opacity:0.5;}
	.st6{fill:#333333;stroke:#9A916C;stroke-width:0.2;stroke-linecap:round;}
	.st7{fill:#999999;}
	.st8{fill:#CCCCCC;}
	.st9{fill:#666666;}
	.st10{fill:none;stroke:#EEEEEE;stroke-width:0.4;stroke-linecap:round;}
	.st11{fill:none;stroke:#9A916C;stroke-width:1.5;}
	.st12{fill:#008000;}
	.st13{fill:#FFD42A;stroke:#FFD42A;stroke-width:0.3672;stroke-miterlimit:3.0597;}
	.st14{fill:#FFD42A;stroke:#FFD42A;stroke-width:0.2811;stroke-miterlimit:3.0597;}
	.st15{fill:#FFD42A;stroke:#FFD42A;stroke-width:0.3341;stroke-miterlimit:3.0597;}
	.st16{fill:#FFFFFF;stroke:#000000;stroke-width:0.2929;stroke-miterlimit:3.0597;}
	.st17{fill:#454545;}
	.st18{fill:#B68B2D;}
	.st19{display:none;}
	.st20{display:inline;opacity:0.1;fill:#FFFFFF;enable-background:new    ;}
	.st21{fill:none;stroke:#EEEEEE;stroke-width:0.5;stroke-linecap:round;}
	.st22{fill:none;stroke:#8C0000;stroke-width:3.2;stroke-linecap:round;}
	.st23{fill:none;stroke:#CC1414;stroke-width:1.6;stroke-linecap:round;}
	.st24{fill:none;stroke:#000000;stroke-width:3.2;stroke-linecap:round;}
	.st25{fill:none;stroke:#404040;stroke-width:1.6;stroke-linecap:round;}
	.st26{fill:#333333;}
	.st27{fill:none;stroke:#7A3A73;stroke-width:3.2;stroke-linecap:round;}
	.st28{fill:none;stroke:#AB58A2;stroke-width:1.6;stroke-linecap:round;}
	.st29{fill:none;stroke:#1B5BB3;stroke-width:3.2;stroke-linecap:round;}
	.st30{fill:none;stroke:#418DD9;stroke-width:1.6;stroke-linecap:round;}
</style>
<path id="Board" class="st0" d="M59.8,0.2h-47C5.8,0.2,0,5.9,0,13v61.7c0,0.2,0.1,0.4,0.3,0.5l5,2.3c0.2,0.1,0.3,0.3,0.3,0.5v17.2
	c0.2,1.1,1.1,2,2.2,2h13.6c0.3,0,0.6-0.3,0.6-0.6v-2.4c0-0.5,0.4-0.8,0.8-0.8H46c0.5,0,0.9,0.4,0.9,0.8v2.3c0,0.3,0.3,0.6,0.6,0.6
	h23.1c1.1,0,2-0.9,2-2V13C72.6,5.9,66.9,0.2,59.8,0.2z M3.9,72.5c-0.7,0-1.3-0.6-1.3-1.3c0-0.7,0.6-1.3,1.3-1.3
	c0.7,0,1.3,0.6,1.3,1.3C5.2,71.9,4.6,72.5,3.9,72.5z M3.9,65.3c-0.7,0-1.3-0.6-1.3-1.3c0-0.7,0.6-1.3,1.3-1.3c0.7,0,1.3,0.6,1.3,1.3
	C5.2,64.7,4.6,65.3,3.9,65.3z M3.9,58.1c-0.7,0-1.3-0.6-1.3-1.3c0-0.7,0.6-1.3,1.3-1.3c0.7,0,1.3,0.6,1.3,1.3S4.6,58.1,3.9,58.1z
	 M3.9,50.9c-0.7,0-1.3-0.6-1.3-1.3s0.6-1.3,1.3-1.3c0.7,0,1.3,0.6,1.3,1.3S4.6,50.9,3.9,50.9z M3.9,43.7c-0.7,0-1.3-0.6-1.3-1.3
	c0-0.7,0.6-1.3,1.3-1.3c0.7,0,1.3,0.6,1.3,1.3S4.6,43.7,3.9,43.7z M3.9,36.5c-0.7,0-1.3-0.6-1.3-1.3s0.6-1.3,1.3-1.3
	c0.7,0,1.3,0.6,1.3,1.3S4.6,36.5,3.9,36.5z M3.9,29.3c-0.7,0-1.3-0.6-1.3-1.3c0-0.7,0.6-1.3,1.3-1.3c0.7,0,1.3,0.6,1.3,1.3
	S4.6,29.3,3.9,29.3z M3.9,22.1c-0.7,0-1.3-0.6-1.3-1.3c0-0.7,0.6-1.3,1.3-1.3c0.7,0,1.3,0.6,1.3,1.3S4.6,22.1,3.9,22.1z M68.7,72.5
	c-0.7,0-1.3-0.6-1.3-1.3c0-0.7,0.6-1.3,1.3-1.3s1.3,0.6,1.3,1.3C70,71.9,69.4,72.5,68.7,72.5z M68.7,65.3c-0.7,0-1.3-0.6-1.3-1.3
	c0-0.7,0.6-1.3,1.3-1.3S70,63.3,70,64C70,64.7,69.4,65.3,68.7,65.3z M68.7,58.1c-0.7,0-1.3-0.6-1.3-1.3c0-0.7,0.6-1.3,1.3-1.3
	s1.3,0.6,1.3,1.3C70,57.5,69.4,58.1,68.7,58.1z M68.7,50.9c-0.7,0-1.3-0.6-1.3-1.3s0.6-1.3,1.3-1.3s1.3,0.6,1.3,1.3
	S69.4,50.9,68.7,50.9z M68.7,43.7c-0.7,0-1.3-0.6-1.3-1.3c0-0.7,0.6-1.3,1.3-1.3s1.3,0.6,1.3,1.3C70,43.1,69.4,43.7,68.7,43.7z
	 M68.7,36.5c-0.7,0-1.3-0.6-1.3-1.3s0.6-1.3,1.3-1.3s1.3,0.6,1.3,1.3S69.4,36.5,68.7,36.5z M68.7,29.3c-0.7,0-1.3-0.6-1.3-1.3
	c0-0.7,0.6-1.3,1.3-1.3S70,27.3,70,28C70,28.7,69.4,29.3,68.7,29.3z M68.7,22.1c-0.7,0-1.3-0.6-1.3-1.3c0-0.7,0.6-1.3,1.3-1.3
	s1.3,0.6,1.3,1.3C70,21.5,69.4,22.1,68.7,22.1z"/>
<g id="centered_3_">
	<g transform="matrix(1, 0, 0, 1, 13.323, 0)">
		<g id="ESP8266">
			<g id="pcb">
				<path d="M45.6,23.4V0.2H0.3v23.2c0.5,0,0.9,0.4,0.9,0.9s-0.4,0.9-0.9,0.9v4c0.5,0,0.9,0.4,0.9,0.9S0.8,31,0.3,31v4
					c0.5,0,0.9,0.4,0.9,0.9s-0.4,0.9-0.9,0.9v4c0.5,0,0.9,0.4,0.9,0.9s-0.4,0.8-0.9,0.8v4c0.5,0,0.9,0.4,0.9,0.8
					c0,0.5-0.4,0.9-0.9,0.9v4c0.5,0,0.9,0.4,0.9,0.9S0.8,54,0.3,54v4c0.5,0,0.9,0.4,0.9,0.9s-0.4,0.9-0.9,0.9v4
					c0.5,0,0.9,0.4,0.9,0.9s-0.4,0.9-0.9,0.9V69H8v-0.1C8,68.4,8.4,68,8.9,68s0.9,0.4,0.9,0.9V69h4v-0.1c0-0.5,0.4-0.9,0.9-0.9
					s0.9,0.4,0.9,0.9V69h4v-0.1c0-0.5,0.4-0.9,0.9-0.9s0.9,0.4,0.9,0.9V69h4v-0.1c0-0.5,0.4-0.9,0.9-0.9s0.9,0.4,0.9,0.9V69h4v-0.1
					c0-0.5,0.4-0.9,0.9-0.9c0.5,0,0.9,0.4,0.9,0.9V69h4v-0.1c0-0.5,0.4-0.9,0.9-0.9s0.9,0.4,0.9,0.9V69h7.7v-3.4
					c-0.5,0-0.8-0.4-0.8-0.9s0.4-0.8,0.8-0.9v-4c-0.5,0-0.8-0.4-0.8-0.9s0.4-0.8,0.8-0.8v-4c-0.5,0-0.8-0.4-0.8-0.9s0.4-0.8,0.8-0.9
					v-4c-0.5,0-0.8-0.4-0.8-0.9s0.4-0.8,0.8-0.8v-4c-0.5,0-0.8-0.4-0.8-0.9s0.4-0.8,0.8-0.9v-4c-0.5,0-0.8-0.4-0.8-0.9
					s0.4-0.8,0.8-0.8v-4c-0.5,0-0.8-0.4-0.8-0.9s0.4-0.8,0.8-0.9v-4c-0.5,0-0.8-0.4-0.8-0.9C44.7,23.8,45.1,23.4,45.6,23.4z
					 M3.1,64.8c-0.5,0-0.9-0.4-0.9-0.9c0-0.5,0.4-0.9,0.9-0.9S4,63.4,4,63.9C3.9,64.4,3.5,64.8,3.1,64.8z M3.1,59.1
					c-0.5,0-0.9-0.4-0.9-0.9s0.4-0.9,0.9-0.9S4,57.7,4,58.2S3.5,59.1,3.1,59.1z M3.1,53.4c-0.5,0-0.9-0.4-0.9-0.9s0.4-0.9,0.9-0.9
					S4,52,4,52.5S3.5,53.4,3.1,53.4z M3.1,47.8c-0.5,0-0.9-0.4-0.9-0.9s0.4-0.8,0.9-0.8S4,46.5,4,46.9C3.9,47.4,3.5,47.8,3.1,47.8z
					 M3.1,42.1c-0.5,0-0.9-0.4-0.9-0.9s0.4-0.9,0.9-0.9S4,40.7,4,41.2C3.9,41.7,3.5,42.1,3.1,42.1z M3.1,36.4
					c-0.5,0-0.9-0.4-0.9-0.9s0.4-0.9,0.9-0.9S4,35,4,35.5S3.5,36.4,3.1,36.4z M3.1,30.8c-0.5,0-0.9-0.4-0.9-0.9S2.6,29,3.1,29
					S4,29.4,4,29.9S3.5,30.8,3.1,30.8z M3.1,25.1c-0.5,0-0.9-0.4-0.9-0.9s0.4-0.9,0.9-0.9S4,23.7,4,24.2S3.5,25.1,3.1,25.1z
					 M42.8,64.8c-0.5,0-0.8-0.4-0.8-0.9c0-0.5,0.4-0.9,0.8-0.9s0.9,0.4,0.9,0.9C43.7,64.4,43.2,64.8,42.8,64.8z M42.8,59.1
					c-0.5,0-0.8-0.4-0.8-0.9s0.4-0.9,0.8-0.9s0.9,0.4,0.9,0.9S43.2,59.1,42.8,59.1z M42.8,53.4c-0.5,0-0.8-0.4-0.8-0.9
					s0.4-0.9,0.8-0.9s0.9,0.4,0.9,0.9S43.2,53.4,42.8,53.4z M42.8,47.8c-0.5,0-0.8-0.4-0.8-0.9s0.4-0.8,0.8-0.8s0.9,0.4,0.9,0.8
					C43.6,47.4,43.2,47.8,42.8,47.8z M42.8,42.1c-0.5,0-0.8-0.4-0.8-0.9s0.4-0.9,0.8-0.9s0.9,0.4,0.9,0.9S43.2,42.1,42.8,42.1z
					 M42.8,36.4c-0.5,0-0.8-0.4-0.8-0.9s0.4-0.9,0.8-0.9s0.9,0.4,0.9,0.9C43.6,36.1,43.2,36.4,42.8,36.4z M42.8,30.8
					c-0.5,0-0.8-0.4-0.8-0.9s0.4-0.9,0.8-0.9s0.9,0.4,0.9,0.9C43.6,30.4,43.2,30.8,42.8,30.8z M42.8,25.1c-0.5,0-0.8-0.4-0.8-0.9
					s0.4-0.9,0.8-0.9s0.9,0.4,0.9,0.9S43.2,25.1,42.8,25.1z"/>
			</g>
			<g id="pads_1_">
				<g id="pads-left_1_">
					<path id="pad1-rst" class="st1" d="M0.2,22.6v0.8c0.5,0,0.9,0.4,0.9,0.9s-0.4,0.9-0.9,0.9V26h4.5v-3.3L0.2,22.6L0.2,22.6z
						 M3.1,25.1c-0.5,0-0.9-0.4-0.9-0.9s0.4-0.9,0.9-0.9S4,23.7,4,24.2S3.5,25.1,3.1,25.1z"/>
					<path id="pad2-adc" class="st1" d="M0.2,28.3v0.8c0.5,0,0.9,0.4,0.9,0.9s-0.4,0.9-0.9,0.9v0.8h4.5v-3.3L0.2,28.3L0.2,28.3z
						 M3.1,30.8c-0.5,0-0.9-0.4-0.9-0.9S2.6,29,3.1,29S4,29.4,4,29.9S3.5,30.8,3.1,30.8z"/>
					<path id="pad3-en" class="st1" d="M0.2,33.9v0.8c0.5,0,0.9,0.4,0.9,0.9s-0.4,0.9-0.9,0.9v0.8h4.5V34L0.2,33.9L0.2,33.9z
						 M3.1,36.4c-0.5,0-0.9-0.4-0.9-0.9s0.4-0.9,0.9-0.9S4,35,4,35.5S3.5,36.4,3.1,36.4z"/>
					<path id="pad4-gpio16" class="st1" d="M0.2,39.6v0.8c0.5,0,0.9,0.4,0.9,0.9s-0.4,0.9-0.9,0.9V43h4.5v-3.3L0.2,39.6L0.2,39.6z
						 M3.1,42.1c-0.5,0-0.9-0.4-0.9-0.9s0.4-0.9,0.9-0.9S4,40.7,4,41.2C3.9,41.7,3.5,42.1,3.1,42.1z"/>
					<path id="pad5-gpio14" class="st1" d="M0.2,45.3v0.8c0.5,0,0.9,0.4,0.9,0.9s-0.4,0.9-0.9,0.9v0.8h4.5v-3.3L0.2,45.3L0.2,45.3z
						 M3.1,47.8c-0.5,0-0.9-0.4-0.9-0.9s0.4-0.8,0.9-0.8S4,46.5,4,46.9C3.9,47.4,3.5,47.8,3.1,47.8z"/>
					<path id="pad6-gpio12" class="st1" d="M0.2,50.9v0.8c0.5,0,0.9,0.4,0.9,0.9s-0.4,0.9-0.9,0.9v0.8h4.5V51L0.2,50.9L0.2,50.9z
						 M3.1,53.4c-0.5,0-0.9-0.4-0.9-0.9s0.4-0.9,0.9-0.9S4,52,4,52.5S3.5,53.4,3.1,53.4z"/>
					<path id="pad7-gpio13" class="st1" d="M0.2,56.6v0.8c0.5,0,0.9,0.4,0.9,0.9s-0.4,0.9-0.9,0.9V60h4.5v-3.3L0.2,56.6L0.2,56.6z
						 M3.1,59.1c-0.5,0-0.9-0.4-0.9-0.9s0.4-0.9,0.9-0.9S4,57.7,4,58.2S3.5,59.1,3.1,59.1z"/>
					<path id="pad8-vcc" class="st1" d="M0.2,62.3v0.8c0.5,0,0.9,0.4,0.9,0.9c0,0.5-0.4,0.9-0.9,0.9v0.8h4.5v-3.3L0.2,62.3L0.2,62.3
						z M3.1,64.8c-0.5,0-0.9-0.4-0.9-0.9c0-0.5,0.4-0.9,0.9-0.9S4,63.4,4,63.9C3.9,64.4,3.5,64.8,3.1,64.8z"/>
				</g>
				<g id="pads-bot">
					<path id="pad9-cso" class="st1" d="M7.1,66.5v1.6h0.8V68c0-0.5,0.4-0.9,0.9-0.9s0.9,0.4,0.9,0.9v0.1h0.8v-1.6H7.1z"/>
					<path id="pad10-miso" class="st1" d="M12.7,66.5v1.6h0.8V68c0-0.5,0.4-0.9,0.9-0.9s0.9,0.4,0.9,0.9v0.1h0.8v-1.6H12.7z"/>
					<path id="pad11-gpio9" class="st1" d="M18.4,66.5v1.6h0.8V68c0-0.5,0.4-0.9,0.9-0.9S21,67.5,21,68v0.1h0.8v-1.6H18.4z"/>
					<path id="pad12-gpio10" class="st1" d="M24.1,66.5v1.6h0.8V68c0-0.5,0.4-0.9,0.8-0.9s0.9,0.4,0.9,0.9v0.1h0.8v-1.6H24.1z"/>
					<path id="pad13-mosi" class="st1" d="M29.8,66.5v1.6h0.8V68c0-0.5,0.4-0.9,0.9-0.9s0.9,0.4,0.9,0.9v0.1h0.8v-1.6H29.8z"/>
					<path id="pad14-sclk" class="st1" d="M35.4,66.5v1.6h0.8V68c0-0.5,0.4-0.9,0.9-0.9S38,67.5,38,68v0.1h0.8v-1.6H35.4z"/>
				</g>
				<g id="pads-right_1_">
					<path id="pad15-gnd" class="st1" d="M44.7,63.9c0-0.5,0.4-0.9,0.9-0.9v-0.8h-4.5v3.3h4.5v-0.8C45.1,64.8,44.7,64.4,44.7,63.9z
						 M42.8,64.8c-0.5,0-0.8-0.4-0.8-0.9c0-0.5,0.4-0.9,0.8-0.9s0.9,0.4,0.9,0.9C43.7,64.4,43.2,64.8,42.8,64.8z"/>
					<path id="pad16-gpio15" class="st1" d="M44.7,58.3c0-0.5,0.4-0.9,0.9-0.9v-0.8h-4.5v3.3h4.5v-0.8
						C45.1,59.1,44.7,58.7,44.7,58.3z M42.8,59.1c-0.5,0-0.8-0.4-0.8-0.9s0.4-0.9,0.8-0.9s0.9,0.4,0.9,0.9S43.2,59.1,42.8,59.1z"/>
					<path id="pad17-gpio2" class="st1" d="M44.7,52.6c0-0.5,0.4-0.9,0.9-0.9v-0.8h-4.5v3.3h4.5v-0.8C45.1,53.4,44.7,53.1,44.7,52.6
						z M42.8,53.4c-0.5,0-0.8-0.4-0.8-0.9s0.4-0.9,0.8-0.9s0.9,0.4,0.9,0.9S43.2,53.4,42.8,53.4z"/>
					<path id="pad18-gpio0" class="st1" d="M44.7,46.9c0-0.5,0.4-0.8,0.9-0.8v-0.8h-4.5v3.3h4.5v-0.8C45.1,47.8,44.7,47.4,44.7,46.9
						z M42.8,47.8c-0.5,0-0.8-0.4-0.8-0.9s0.4-0.8,0.8-0.8s0.9,0.4,0.9,0.8C43.6,47.4,43.2,47.8,42.8,47.8z"/>
					<path id="pad19-gpio4" class="st1" d="M44.7,41.3c0-0.5,0.4-0.9,0.9-0.9v-0.8h-4.5v3.3h4.5v-0.8C45.1,42.1,44.7,41.7,44.7,41.3
						z M42.8,42.1c-0.5,0-0.8-0.4-0.8-0.9s0.4-0.9,0.8-0.9s0.9,0.4,0.9,0.9S43.2,42.1,42.8,42.1z"/>
					<path id="pad20-gpio5" class="st1" d="M44.7,35.6c0-0.5,0.4-0.9,0.9-0.9v-0.8h-4.5v3.3h4.5v-0.8C45.1,36.4,44.7,36.1,44.7,35.6
						z M42.8,36.4c-0.5,0-0.8-0.4-0.8-0.9s0.4-0.9,0.8-0.9s0.9,0.4,0.9,0.9C43.6,36.1,43.2,36.4,42.8,36.4z"/>
					<path id="pad21-rxd0" class="st1" d="M44.7,29.9c0-0.5,0.4-0.9,0.9-0.9v-0.8h-4.5v3.3h4.5v-0.8C45.1,30.8,44.7,30.4,44.7,29.9z
						 M42.8,30.8c-0.5,0-0.8-0.4-0.8-0.9s0.4-0.9,0.8-0.9s0.9,0.4,0.9,0.9C43.6,30.4,43.2,30.8,42.8,30.8z"/>
					<path id="pad22-txd0" class="st1" d="M44.7,24.2c0-0.5,0.4-0.9,0.9-0.9v-0.8h-4.5v3.3h4.5V25C45.1,25.1,44.7,24.7,44.7,24.2z
						 M42.8,25.1c-0.5,0-0.8-0.4-0.8-0.9s0.4-0.9,0.8-0.9s0.9,0.4,0.9,0.9S43.2,25.1,42.8,25.1z"/>
				</g>
			</g>
			<g id="antenna">
				<polygon class="st1" points="43.5,15.4 42.3,15.4 42.3,3.4 37.2,3.4 37.2,11.1 28.9,11.1 28.9,3.4 23.6,3.4 23.6,11.1 
					15.3,11.1 15.3,3.4 10.2,3.4 10.2,15.4 9,15.4 9,3.4 3.9,3.4 3.9,15.4 2.3,15.4 2.3,2.2 16.5,2.2 16.5,9.9 22.4,9.9 22.4,2.2 
					30.1,2.2 30.1,9.9 36,9.9 36,2.2 43.5,2.2 				"/>
			</g>
			<g id="led">
				<g id="silk">
					<polygon class="st2" points="37.3,20 37.3,17.1 40.5,17.1 40.5,16.9 37.1,16.9 37.1,20.2 40.5,20.2 40.5,20 					"/>
					<polygon class="st2" points="41.3,16.9 41.3,17.1 44.4,17.1 44.4,20 41.3,20 41.3,20.2 44.7,20.2 44.7,16.9 					"/>
				</g>
				<g transform="matrix(-1, -1.21645e-10, 1.21645e-10, -1, 77.0229, 36.835)">
					<rect id="led-pad-left" x="37.1" y="17.1" class="st1" width="2.4" height="2.4"/>
				</g>
				<g transform="matrix(-1, -1.21645e-10, 1.21645e-10, -1, 85.5269, 36.835)">
					<rect id="led-pad-right" x="41.3" y="17.1" class="st1" width="2.4" height="2.4"/>
				</g>
				<path id="led-outer" class="st3" d="M43.3,18.6c0-0.3,0.3-0.6,0.6-0.6v-0.4h-6V18c0.3,0,0.6,0.3,0.6,0.6s-0.3,0.6-0.6,0.6v0.4h6
					v-0.4C43.6,19.1,43.3,18.9,43.3,18.6z"/>
				<rect id="led-blue" x="38.9" y="17.6" class="st4" width="4" height="2"/>
			</g>
			<g id="holes" class="st5">
				<g id="holes-right">
					<circle class="st6" cx="43.9" cy="61.1" r="0.5"/>
					<circle class="st6" cx="43.9" cy="55.5" r="0.5"/>
					<circle class="st6" cx="43.9" cy="49.8" r="0.5"/>
					<circle class="st6" cx="43.9" cy="44.1" r="0.5"/>
					<circle class="st6" cx="43.9" cy="38.5" r="0.5"/>
					<circle class="st6" cx="43.9" cy="32.8" r="0.5"/>
					<circle class="st6" cx="43.9" cy="27.1" r="0.5"/>
					<circle class="st6" cx="43.9" cy="21.4" r="0.5"/>
				</g>
				<g id="holes-left">
					<circle class="st6" cx="1.9" cy="61.1" r="0.5"/>
					<circle class="st6" cx="1.9" cy="55.5" r="0.5"/>
					<circle class="st6" cx="1.8" cy="49.8" r="0.5"/>
					<circle class="st6" cx="1.9" cy="44.1" r="0.5"/>
					<circle class="st6" cx="1.9" cy="38.5" r="0.5"/>
					<circle class="st6" cx="1.9" cy="32.8" r="0.5"/>
					<circle class="st6" cx="1.8" cy="27.1" r="0.5"/>
				</g>
				<g id="holes-top">
					<circle class="st6" cx="1.9" cy="18.3" r="0.5"/>
					<circle class="st6" cx="3.6" cy="18.3" r="0.5"/>
					<circle class="st6" cx="5.3" cy="18.3" r="0.5"/>
					<circle class="st6" cx="7" cy="18.3" r="0.5"/>
				</g>
				<g id="holes-bot">
					<circle class="st6" cx="1.9" cy="20" r="0.5"/>
					<circle class="st6" cx="3.6" cy="20" r="0.5"/>
					<circle class="st6" cx="5.3" cy="20" r="0.5"/>
					<circle class="st6" cx="7" cy="20" r="0.5"/>
				</g>
				<g id="holes-top-2">
					<circle class="st6" cx="11.9" cy="18.3" r="0.5"/>
					<circle class="st6" cx="13.6" cy="18.3" r="0.5"/>
					<circle class="st6" cx="15.3" cy="18.3" r="0.5"/>
					<circle class="st6" cx="17" cy="18.3" r="0.5"/>
					<circle class="st6" cx="18.7" cy="18.3" r="0.5"/>
					<circle class="st6" cx="20.4" cy="18.3" r="0.5"/>
					<circle class="st6" cx="22.1" cy="18.3" r="0.5"/>
					<circle class="st6" cx="23.8" cy="18.3" r="0.5"/>
					<circle class="st6" cx="25.5" cy="18.3" r="0.5"/>
					<circle class="st6" cx="27.2" cy="18.3" r="0.5"/>
					<circle class="st6" cx="28.9" cy="18.3" r="0.5"/>
					<circle class="st6" cx="30.6" cy="18.3" r="0.5"/>
					<circle class="st6" cx="32.3" cy="18.3" r="0.5"/>
					<circle class="st6" cx="34" cy="18.3" r="0.5"/>
					<circle class="st6" cx="35.7" cy="18.3" r="0.5"/>
				</g>
				<g id="holes-bot-2">
					<circle class="st6" cx="11.9" cy="20" r="0.5"/>
					<circle class="st6" cx="13.6" cy="20" r="0.5"/>
					<circle class="st6" cx="15.3" cy="20" r="0.5"/>
					<circle class="st6" cx="17" cy="20" r="0.5"/>
					<circle class="st6" cx="18.7" cy="20" r="0.5"/>
					<circle class="st6" cx="20.4" cy="20" r="0.5"/>
					<circle class="st6" cx="22.1" cy="20" r="0.5"/>
					<circle class="st6" cx="23.8" cy="20" r="0.5"/>
					<circle class="st6" cx="25.5" cy="20" r="0.5"/>
					<circle class="st6" cx="27.2" cy="20" r="0.5"/>
					<circle class="st6" cx="28.9" cy="20" r="0.5"/>
				</g>
			</g>
			<g id="cover">
				<rect id="main" x="5.8" y="21.4" class="st7" width="34.2" height="43.2"/>
				<g id="shadows">
					<polygon id="bottom-right" class="st8" points="39.5,22 39.5,64.1 6.3,64.1 6.3,64 5.6,64.9 5.8,65.1 40,65.1 40.5,64.6 
						40.5,21.4 40.2,21.1 					"/>
					<polygon id="top-left" class="st9" points="6.3,21.9 39.5,21.9 39.5,22 40.2,21.1 40,20.9 5.8,20.9 5.3,21.4 5.3,64.6 
						5.6,64.9 6.3,64 					"/>
				</g>
				<g id="wemos-logo">
					<path id="wemos-logo-w" class="st2" d="M38.2,27.2v0.6c-0.3,0.2-0.7,0.4-1.1,0.2c-2.1-1-4.4-1.7-6.7-1.3
						c-0.9,0.2-1.9,0.5-2.4,1.3c-0.5,0.9-0.2,2,0.4,2.7c0.3,0.4,0.9,0.4,1.3,0.6c0.5,0.1,0.5,0.9,0.2,1.1c-0.5,0.3-1.2,0.4-1.6,0.8
						c-0.7,0.7-0.8,1.9-0.2,2.6c0.6,0.7,1.6,0.9,2.5,1c1.7,0.1,3.4-0.4,4.8-1.2c0.6-0.4,1.1-0.9,1.7-1.3c0.5-0.1,0.9,0.4,0.7,0.9
						c-0.4,0.9-1.3,1.4-2.2,1.8c-1.9,0.9-4.1,1.5-6.2,1.1c-1.5-0.3-3-1.4-3.2-3V34c0.2-0.9,0.7-1.6,1.3-2.2
						c-0.6-0.7-1.2-1.6-1.3-2.5v-0.8c0.1-0.8,0.4-1.5,1-2.1c1-0.9,2.5-1.3,3.8-1.4h1.4c1.7,0.2,3.3,0.7,4.9,1.3
						C37.6,26.6,37.9,26.9,38.2,27.2z"/>
					<path id="wemos-logo-e" class="st2" d="M30.8,40.6C30.2,39.2,28,38.9,27,40c-0.7,0.9-0.6,2.1-0.2,3.2c0.3,0,0.6,0,0.9,0
						c-0.4-0.9-0.6-2.4,0.6-2.6c0,1,0,2,0,3c0.6,0,1.3,0,1.8-0.4C31,42.6,31.1,41.4,30.8,40.6z M30.1,41.6c0,0.5-0.5,0.7-0.9,0.8
						c0-0.6,0-1.2,0-1.9C29.6,40.7,30.2,41,30.1,41.6z"/>
					<path id="wemos-logo-m" class="st2" d="M32.5,44.5c0,0.6,0,1.3,0,1.9c-1.4,0.5-2.9,1.1-4.3,1.6c1.5,0.5,2.9,1.1,4.3,1.6
						c0,0.6,0,1.3,0,1.9c-2,0-3.9,0-5.9,0c0-0.4,0-0.9,0-1.3c1.6,0,3.3,0,4.9,0c-1.7-0.4-3.3-1.2-4.9-1.7c0-0.4,0-0.7,0-1.1
						c1.6-0.6,3.2-1.3,4.9-1.8c-1.6,0-3.3,0-4.9,0c0-0.4,0-0.8,0-1.2C28.6,44.5,30.6,44.5,32.5,44.5z"/>
					<path id="wemos-logo-o" class="st2" d="M30.4,54c0.6,1.2-0.6,2.8-1.9,2.4c-1.3-0.3-1.7-2.2-0.7-3.1C28.7,52.7,30.1,53,30.4,54z
						"/>
					<path id="wemos-logo-wifi-fan-3" class="st2" d="M35.6,49.4c1.2,1.2,2,2.7,2.3,4.3c0.4,2.3-0.6,4.7-2.2,6.3
						c-0.3-0.3-0.6-0.6-0.9-0.9c1.3-1.2,2-3,1.9-4.7c-0.1-1.6-0.8-3.1-2-4.2C35,50,35.3,49.7,35.6,49.4z"/>
					<path id="wemos-logo-wifi-fan-2" class="st2" d="M34,50.9c1.3,1.1,1.9,2.9,1.7,4.6c-0.1,1.2-0.8,2.3-1.6,3.2
						c-0.3-0.3-0.7-0.6-1-0.9c0.9-0.9,1.4-2.1,1.2-3.4c-0.1-1-0.6-1.8-1.3-2.5C33.4,51.5,33.7,51.2,34,50.9z"/>
					<path id="wemos-logo-wifi-fan-1" class="st2" d="M32.4,52.4c0.6,0.6,1,1.4,1,2.3s-0.4,1.8-1,2.4c-0.3-0.3-0.6-0.6-1-0.9
						c0.8-0.8,0.8-2.1,0-2.9C31.8,53,32.1,52.7,32.4,52.4z"/>
					<path id="wemos-logo-s" class="st2" d="M30.6,58.2c0.5,0.8,0.4,1.7,0.2,2.6c-0.3,0-0.6,0-1,0c0.3-0.6,0.4-1.4-0.1-2
						c-0.8,0.6-0.6,1.9-1.6,2.2h-0.7c-1.2-0.6-1.2-2.2-0.8-3.3c0.3-0.1,0.7-0.1,1-0.1c-0.2,0.6-0.5,1.2-0.3,1.8
						c0,0.3,0.2,0.4,0.5,0.3c0.4-0.6,0.4-1.4,1-1.9C29.4,57.5,30.3,57.6,30.6,58.2z"/>
				</g>
				<g id="words">
					<g id="model">
						<path id="model-m" class="st2" d="M23.8,25.4v1l-1.5,0.4l1.5,0.4v1h-2.5v-0.6h1.9l-1.9-0.5v-0.6l1.9-0.5h-1.9v-0.6L23.8,25.4z
							"/>
						<path id="model-o" class="st2" d="M22.6,28.6c0.4,0,0.7,0.1,1,0.3c0.2,0.2,0.3,0.5,0.3,1c0,0.4-0.1,0.7-0.3,1
							c-0.2,0.2-0.5,0.3-0.9,0.3c-0.3,0-0.5,0-0.7-0.1s-0.3-0.2-0.4-0.4c-0.1-0.2-0.2-0.4-0.2-0.7c0-0.3,0-0.5,0.1-0.7
							s0.2-0.3,0.4-0.4C22,28.7,22.3,28.6,22.6,28.6z M22.6,29.4c-0.3,0-0.4,0-0.5,0.1s-0.2,0.2-0.2,0.4c0,0.2,0.1,0.3,0.2,0.4
							s0.3,0.1,0.6,0.1c0.2,0,0.4,0,0.5-0.1s0.2-0.2,0.2-0.4c0-0.2-0.1-0.3-0.2-0.4C23,29.4,22.8,29.4,22.6,29.4z"/>
						<path id="model-d" class="st2" d="M23.8,31.6v1.1c0,0.2,0,0.4-0.1,0.5s-0.1,0.3-0.3,0.3c-0.1,0.1-0.2,0.2-0.4,0.2
							c-0.2,0-0.3,0.1-0.5,0.1c-0.3,0-0.5,0-0.6-0.1s-0.3-0.1-0.4-0.3c-0.1-0.1-0.2-0.2-0.2-0.3c0-0.2-0.1-0.3-0.1-0.5v-1.1
							L23.8,31.6L23.8,31.6z M23.2,32.4h-1.4v0.2c0,0.2,0,0.3,0.1,0.3c0,0.1,0.1,0.1,0.2,0.2c0.1,0,0.2,0.1,0.4,0.1
							c0.3,0,0.4,0,0.5-0.1s0.1-0.2,0.1-0.4L23.2,32.4L23.2,32.4z"/>
						<path id="model-e" class="st2" d="M23.8,34.3v2.1h-0.5v-1.3h-0.4v1.2h-0.5v-1.2h-0.5v1.3h-0.6v-2.1H23.8z"/>
						<path id="model-l" class="st2" d="M23.8,36.9v0.8h-1.9v1.2h-0.6v-2H23.8z"/>
					</g>
					<g id="esp-8266">
						<path id="esp-e" class="st2" d="M23.8,41.4v2.1h-0.5v-1.3h-0.4v1.2h-0.5v-1.2h-0.5v1.3h-0.6v-2.1H23.8z"/>
						<path id="esp-s" class="st2" d="M22.1,43.8v0.7c-0.1,0-0.2,0-0.3,0.1c-0.1,0.1-0.2,0.2-0.2,0.3c0,0.1,0,0.2,0.1,0.3
							c0.1,0.1,0.1,0.1,0.2,0.1s0.1,0,0.2-0.1s0.1-0.2,0.1-0.4c0.1-0.3,0.2-0.6,0.3-0.7c0.1-0.1,0.3-0.2,0.5-0.2
							c0.1,0,0.3,0,0.4,0.1s0.2,0.2,0.3,0.3c0.1,0.1,0.1,0.4,0.1,0.6c0,0.3-0.1,0.6-0.2,0.7c-0.1,0.2-0.3,0.3-0.6,0.3v-0.7
							c0.1,0,0.2-0.1,0.2-0.1c0.1-0.1,0.1-0.1,0.1-0.3c0-0.1,0-0.2-0.1-0.2l-0.1-0.1c0,0-0.1,0-0.1,0.1c0,0-0.1,0.1-0.1,0.3
							c-0.1,0.3-0.1,0.6-0.2,0.7s-0.2,0.3-0.3,0.3C22.3,46,22.2,46,22,46c-0.2,0-0.3,0-0.4-0.1s-0.2-0.2-0.3-0.4
							c-0.1-0.2-0.1-0.4-0.1-0.6c0-0.4,0.1-0.7,0.2-0.9S21.9,43.8,22.1,43.8z"/>
						<path id="esp-p" class="st2" d="M23.8,46.5v1.3c0,0.3-0.1,0.5-0.2,0.6s-0.3,0.2-0.6,0.2c-0.3,0-0.5-0.1-0.6-0.2
							s-0.2-0.4-0.2-0.7v-0.4h-0.9v-0.8H23.8z M22.7,47.2v0.2c0,0.1,0,0.3,0.1,0.3s0.1,0.1,0.2,0.1s0.1,0,0.2-0.1s0.1-0.2,0.1-0.3
							v-0.2H22.7L22.7,47.2z"/>
						<path id="esp-dash" class="st2" d="M22.5,48.8v1H22v-1H22.5z"/>
						<path id="esp-8" class="st2" d="M22.7,50.5c0.1-0.1,0.1-0.2,0.2-0.2c0.1-0.1,0.2-0.1,0.3-0.1c0.2,0,0.4,0.1,0.5,0.3
							c0.1,0.2,0.2,0.4,0.2,0.6c0,0.3-0.1,0.6-0.2,0.7C23.6,52,23.4,52,23.2,52c-0.1,0-0.2,0-0.3-0.1c-0.1,0-0.1-0.1-0.2-0.2
							c-0.1,0.1-0.2,0.2-0.3,0.3c-0.1,0.1-0.2,0.1-0.4,0.1c-0.1,0-0.2,0-0.4-0.1c-0.1-0.1-0.2-0.1-0.3-0.2c-0.1-0.1-0.1-0.2-0.1-0.3
							c0-0.1,0-0.3,0-0.4c0-0.3,0-0.5,0.1-0.6s0.2-0.2,0.3-0.3c0.1-0.1,0.3-0.1,0.4-0.1s0.3,0,0.4,0.1
							C22.5,50.2,22.6,50.3,22.7,50.5z M22.1,50.7c-0.1,0-0.2,0-0.3,0.1c-0.1,0.1-0.1,0.1-0.1,0.2s0,0.2,0.1,0.2
							c0.1,0.1,0.2,0.1,0.3,0.1c0.1,0,0.2,0,0.3-0.1c0.1-0.1,0.1-0.1,0.1-0.2s0-0.2-0.1-0.2S22.2,50.7,22.1,50.7z M23.1,50.8
							c-0.1,0-0.2,0-0.2,0.1c-0.1,0.1-0.1,0.1-0.1,0.2s0,0.1,0.1,0.2s0.1,0.1,0.2,0.1s0.2,0,0.2-0.1c0.1-0.1,0.1-0.1,0.1-0.2
							s0-0.2-0.1-0.2S23.2,50.8,23.1,50.8z"/>
						<path id="esp-2" class="st2" d="M21.3,54.4v-2.1c0.2,0,0.4,0.1,0.6,0.2s0.4,0.3,0.6,0.7c0.2,0.2,0.3,0.3,0.3,0.4
							c0.1,0.1,0.2,0.1,0.2,0.1c0.1,0,0.1,0,0.2-0.1s0.1-0.1,0.1-0.2s0-0.2-0.1-0.2s-0.2-0.1-0.3-0.1l0.1-0.7c0.2,0,0.3,0.1,0.5,0.1
							c0.1,0.1,0.2,0.2,0.3,0.3c0.1,0.1,0.1,0.3,0.1,0.6c0,0.2,0,0.4-0.1,0.6c-0.1,0.1-0.1,0.2-0.3,0.3c-0.1,0.1-0.2,0.1-0.4,0.1
							c-0.2,0-0.3,0-0.4-0.1s-0.3-0.3-0.5-0.5c-0.1-0.1-0.2-0.2-0.2-0.3c0,0-0.1-0.1-0.2-0.2v1.1L21.3,54.4L21.3,54.4z"/>
						<path id="esp-6" class="st2" d="M23.3,56.7L23.2,56c0.1,0,0.2,0,0.2-0.1c0,0,0.1-0.1,0.1-0.2s-0.1-0.2-0.2-0.3
							c-0.1,0-0.3-0.1-0.5-0.1c0.1,0.1,0.1,0.2,0.2,0.3c0,0.1,0.1,0.2,0.1,0.3c0,0.2-0.1,0.4-0.2,0.6c-0.2,0.2-0.4,0.2-0.6,0.2
							s-0.3,0-0.5-0.1c-0.1-0.1-0.2-0.2-0.3-0.3c-0.1-0.1-0.1-0.3-0.1-0.5c0-0.3,0-0.5,0.1-0.6c0.1-0.2,0.2-0.3,0.4-0.4
							c0.2-0.1,0.4-0.1,0.7-0.1c0.5,0,0.8,0.1,1,0.3c0.2,0.2,0.3,0.5,0.3,0.8c0,0.2,0,0.4-0.1,0.5c0,0.1-0.1,0.2-0.2,0.3
							C23.5,56.6,23.4,56.7,23.3,56.7z M22.1,55.4c-0.1,0-0.2,0-0.3,0.1s-0.1,0.2-0.1,0.3c0,0.1,0,0.2,0.1,0.2
							c0.1,0.1,0.2,0.1,0.3,0.1c0.1,0,0.2,0,0.3-0.1c0.1-0.1,0.1-0.1,0.1-0.2s0-0.2-0.1-0.2C22.4,55.5,22.3,55.4,22.1,55.4z"/>
						<path id="esp-6_1_" class="st2" d="M23.3,59.1l-0.1-0.7c0.1,0,0.2,0,0.2-0.1c0,0,0.1-0.1,0.1-0.2s-0.1-0.2-0.2-0.3
							c-0.1,0-0.3-0.1-0.5-0.1c0.1,0.1,0.1,0.2,0.2,0.3c0,0.1,0.1,0.2,0.1,0.3c0,0.2-0.1,0.4-0.2,0.6c-0.2,0.2-0.4,0.2-0.6,0.2
							s-0.3,0-0.5-0.1c-0.1-0.1-0.2-0.2-0.3-0.3c-0.1-0.1-0.1-0.3-0.1-0.5c0-0.3,0-0.5,0.1-0.6c0.1-0.2,0.2-0.3,0.4-0.4
							c0.2-0.1,0.4-0.1,0.7-0.1c0.5,0,0.8,0.1,1,0.3c0.2,0.2,0.3,0.5,0.3,0.8c0,0.2,0,0.4-0.1,0.5c0,0.1-0.1,0.2-0.2,0.3
							C23.5,59,23.4,59,23.3,59.1z M22.1,57.8c-0.1,0-0.2,0-0.3,0.1s-0.1,0.2-0.1,0.3c0,0.1,0,0.2,0.1,0.2c0.1,0.1,0.2,0.1,0.3,0.1
							c0.1,0,0.2,0,0.3-0.1c0.1-0.1,0.1-0.1,0.1-0.2s0-0.2-0.1-0.2C22.4,57.8,22.3,57.8,22.1,57.8z"/>
					</g>
					<g id="ism">
						<path id="ism-i" class="st2" d="M19.3,41.4v0.7h-2.1v-0.7H19.3z"/>
						<path id="ism-s" class="st2" d="M17.9,42.4V43c-0.1,0-0.2,0-0.2,0.1c-0.1,0.1-0.1,0.2-0.1,0.3c0,0.1,0,0.2,0.1,0.2
							c0,0.1,0.1,0.1,0.2,0.1s0.1,0,0.1-0.1c0,0,0.1-0.2,0.1-0.3c0.1-0.3,0.2-0.5,0.3-0.6c0.1-0.1,0.2-0.2,0.4-0.2
							c0.1,0,0.2,0,0.3,0.1c0.1,0.1,0.2,0.2,0.2,0.3c0.1,0.1,0.1,0.3,0.1,0.5c0,0.3-0.1,0.5-0.2,0.6s-0.3,0.2-0.5,0.3v-0.6
							c0.1,0,0.2-0.1,0.2-0.1c0-0.1,0.1-0.1,0.1-0.2s0-0.1,0-0.2l-0.1-0.1h-0.1c0,0-0.1,0.1-0.1,0.2c-0.1,0.3-0.1,0.5-0.2,0.6
							s-0.1,0.2-0.2,0.3c-0.1,0.1-0.2,0.1-0.3,0.1c-0.1,0-0.3,0-0.4-0.1s-0.2-0.2-0.3-0.3c-0.1-0.1-0.1-0.3-0.1-0.5
							c0-0.4,0.1-0.6,0.2-0.8C17.5,42.5,17.6,42.4,17.9,42.4z"/>
						<path id="ism-m" class="st2" d="M19.3,44.7v0.9L18,45.9l1.3,0.3v0.9h-2.1v-0.5h1.6l-1.6-0.4v-0.5l1.6-0.4h-1.6v-0.6H19.3z"/>
						<path id="ism-2" class="st2" d="M17.2,50.2v-1.8c0.2,0,0.3,0.1,0.5,0.2s0.3,0.3,0.6,0.6c0.1,0.2,0.2,0.3,0.3,0.3
							c0.1,0,0.1,0.1,0.2,0.1s0.1,0,0.2-0.1c0,0,0.1-0.1,0.1-0.2s0-0.1-0.1-0.2c0,0-0.1-0.1-0.3-0.1v-0.6c0.2,0,0.3,0.1,0.4,0.1
							c0.1,0.1,0.2,0.1,0.2,0.3c0.1,0.1,0.1,0.3,0.1,0.5s0,0.4-0.1,0.5c0,0.1-0.1,0.2-0.2,0.3c-0.1,0.1-0.2,0.1-0.3,0.1
							c-0.1,0-0.3,0-0.4-0.1s-0.3-0.2-0.4-0.4c-0.1-0.1-0.1-0.2-0.2-0.2l-0.1-0.1v0.9L17.2,50.2L17.2,50.2z"/>
						<path id="ism-dot" class="st2" d="M17.8,50.5v0.6h-0.6v-0.6H17.8z"/>
						<path id="ism-4" class="st2" d="M17.6,52.5v-1.1h0.5l1.3,1.1V53h-1.3v0.3h-0.5V53h-0.4v-0.5H17.6z M18,52.5h0.7L18,51.9V52.5z
							"/>
						<path id="ism-g" class="st2" d="M17.9,54.6h0.4v1h-0.9c-0.1-0.2-0.2-0.4-0.3-0.5c0-0.1-0.1-0.3-0.1-0.5c0-0.3,0-0.5,0.1-0.6
							c0.1-0.2,0.2-0.3,0.4-0.4c0.2-0.1,0.4-0.1,0.6-0.1s0.4,0,0.6,0.1s0.3,0.2,0.4,0.4c0.1,0.1,0.1,0.3,0.1,0.6
							c0,0.2,0,0.4-0.1,0.5c0,0.1-0.1,0.2-0.2,0.3c-0.1,0.1-0.2,0.1-0.3,0.2L18.5,55c0.1,0,0.1-0.1,0.2-0.1c0-0.1,0.1-0.1,0.1-0.2
							s-0.1-0.3-0.2-0.3c-0.1-0.1-0.3-0.1-0.5-0.1s-0.4,0-0.5,0.1s-0.1,0.2-0.1,0.4c0,0.1,0,0.1,0,0.2s0.1,0.1,0.1,0.2h0.2
							L17.9,54.6L17.9,54.6z"/>
						<path id="ism-h" class="st2" d="M19.3,56v0.7h-0.8v0.7h0.8v0.7h-2.1v-0.7h0.9v-0.7h-0.9V56H19.3z"/>
						<path id="ism-z" class="st2" d="M18.7,58.4v1.4h-0.3L17.6,59v0.8h-0.4v-1.6h0.4l0.8,0.7v-0.7L18.7,58.4L18.7,58.4z"/>
					</g>
					<g id="pa">
						<path id="pa-p" class="st2" d="M15.3,41.4v1.1c0,0.2-0.1,0.4-0.2,0.5s-0.3,0.2-0.5,0.2s-0.4-0.1-0.5-0.2s-0.2-0.3-0.2-0.6V42
							h-0.8v-0.7L15.3,41.4L15.3,41.4z M14.4,42v0.2c0,0.1,0,0.2,0.1,0.3c0,0.1,0.1,0.1,0.2,0.1s0.1,0,0.2-0.1s0.1-0.1,0.1-0.3V42
							H14.4L14.4,42z"/>
						<path id="pa-a" class="st2" d="M13.5,44.6v-0.8l-0.4-0.1V43l2.1,0.8v0.7l-2.1,0.8v-0.6L13.5,44.6z M14,44.5l0.8-0.2L14,44.1
							V44.5z"/>
						<path id="pa-plus" class="st2" d="M14.5,46.6v0.6h0.6v0.5h-0.6v0.6H14v-0.6h-0.6v-0.5H14v-0.6H14.5z"/>
						<path id="pa-2" class="st2" d="M13.2,50.2v-1.8c0.2,0,0.3,0.1,0.5,0.2s0.3,0.3,0.6,0.6c0.1,0.2,0.2,0.3,0.3,0.3
							c0.1,0,0.1,0.1,0.2,0.1s0.1,0,0.2-0.1c0,0,0.1-0.1,0.1-0.2s0-0.1-0.1-0.2c0,0-0.1-0.1-0.3-0.1v-0.6c0.2,0,0.3,0.1,0.4,0.1
							c0.1,0.1,0.2,0.1,0.2,0.3c0.1,0.1,0.1,0.3,0.1,0.5s0,0.4-0.1,0.5c0,0.1-0.1,0.2-0.2,0.3c-0.1,0.1-0.2,0.1-0.3,0.1
							c-0.1,0-0.3,0-0.4-0.1s-0.3-0.2-0.4-0.4c-0.1-0.1-0.1-0.2-0.2-0.2l-0.1-0.1v0.9L13.2,50.2L13.2,50.2z"/>
						<path id="pa-5" class="st2" d="M15.3,50.7v1.4h-0.5v-1L14.5,51c0,0.1,0.1,0.1,0.1,0.2s0,0.1,0,0.2c0,0.2-0.1,0.4-0.2,0.5
							s-0.3,0.2-0.5,0.2c-0.1,0-0.3,0-0.4-0.1s-0.2-0.2-0.3-0.3c-0.1-0.1-0.1-0.3-0.1-0.5c0-0.1,0-0.3,0-0.4s0.1-0.2,0.1-0.3
							c0.1-0.1,0.1-0.1,0.2-0.2c0.1,0,0.2-0.1,0.3-0.1l0.1,0.6c-0.1,0-0.2,0-0.2,0.1c-0.1,0.1-0.1,0.1-0.1,0.2s0,0.2,0.1,0.2
							c0.1,0.1,0.2,0.1,0.3,0.1c0.1,0,0.2,0,0.3-0.1c0.1-0.1,0.1-0.1,0.1-0.2s0-0.1,0-0.2l-0.1-0.1l0.1-0.5L15.3,50.7z"/>
						<path id="pa-d" class="st2" d="M15.3,54.2h-2.1v-0.6h0.2c-0.1-0.1-0.2-0.1-0.2-0.2s-0.1-0.2-0.1-0.3c0-0.2,0.1-0.4,0.2-0.5
							c0.2-0.1,0.4-0.2,0.6-0.2c0.3,0,0.5,0.1,0.6,0.2s0.2,0.3,0.2,0.5c0,0.1,0,0.2,0,0.3c0,0.1-0.1,0.1-0.1,0.2h0.7L15.3,54.2
							L15.3,54.2z M13.9,53.6c0.1,0,0.2,0,0.3-0.1c0.1-0.1,0.1-0.1,0.1-0.2s0-0.1-0.1-0.2c-0.1,0-0.2-0.1-0.3-0.1
							c-0.1,0-0.2,0-0.3,0.1c-0.1,0-0.1,0.1-0.1,0.2s0,0.1,0.1,0.2C13.7,53.6,13.8,53.6,13.9,53.6z"/>
						<path id="pa-b" class="st2" d="M15.3,54.6v1.2c0,0.2-0.1,0.4-0.2,0.5s-0.2,0.2-0.4,0.2c-0.1,0-0.2,0-0.3-0.1
							c-0.1-0.1-0.1-0.1-0.1-0.2c0,0.2-0.1,0.3-0.2,0.3c-0.1,0.1-0.2,0.1-0.3,0.1c-0.1,0-0.2,0-0.3-0.1c-0.1-0.1-0.2-0.1-0.2-0.2
							s-0.1-0.1-0.1-0.3c0-0.1,0-0.2,0-0.3v-1.1H15.3z M13.6,55.3v0.3c0,0.1,0,0.2,0.1,0.2c0,0,0.1,0.1,0.2,0.1s0.1,0,0.2-0.1
							c0,0,0.1-0.1,0.1-0.2v-0.3H13.6z M14.5,55.3v0.3c0,0.1,0,0.2,0.1,0.2c0,0,0.1,0.1,0.2,0.1s0.1,0,0.1-0.1c0,0,0.1-0.1,0.1-0.2
							v-0.3H14.5z"/>
						<path id="pa-m" class="st2" d="M14.7,56.9v0.6h-0.2c0.1,0.1,0.2,0.2,0.2,0.2c0,0.1,0.1,0.2,0.1,0.3c0,0.1,0,0.2-0.1,0.3
							c0,0.1-0.1,0.1-0.2,0.2c0.1,0.1,0.2,0.2,0.2,0.3c0,0.1,0.1,0.2,0.1,0.3c0,0.2,0,0.3-0.1,0.4s-0.3,0.1-0.5,0.1h-1V59h0.9
							c0.1,0,0.1,0,0.2,0s0.1-0.1,0.1-0.1c0-0.1,0-0.1-0.1-0.2c-0.1,0-0.1-0.1-0.2-0.1h-0.8V58h0.9c0.1,0,0.1,0,0.1,0s0.1,0,0.1-0.1
							v-0.1c0-0.1,0-0.1-0.1-0.2c-0.1,0-0.1-0.1-0.3-0.1h-0.8v-0.6L14.7,56.9L14.7,56.9z"/>
					</g>
					<g id="_x38_02">
						<path id="_x38_02-8" class="st2" d="M10.3,41.6c0-0.1,0.1-0.2,0.2-0.2c0.1-0.1,0.2-0.1,0.3-0.1c0.2,0,0.3,0.1,0.4,0.3
							c0.1,0.1,0.1,0.3,0.1,0.5c0,0.3-0.1,0.5-0.2,0.6s-0.2,0.2-0.4,0.2c-0.1,0-0.2,0-0.3-0.1c-0.1,0-0.1-0.1-0.2-0.2
							c-0.1,0.1-0.1,0.2-0.2,0.3C9.9,43,9.8,43,9.7,43c-0.1,0-0.2,0-0.3-0.1c-0.1,0-0.2-0.1-0.2-0.2c-0.1-0.1-0.1-0.2-0.1-0.3
							c0-0.1,0-0.2,0-0.3c0-0.2,0-0.4,0.1-0.5s0.1-0.2,0.2-0.3c0.1-0.1,0.2-0.1,0.4-0.1c0.1,0,0.2,0,0.3,0.1
							C10.2,41.4,10.3,41.5,10.3,41.6z M9.8,41.9c-0.1,0-0.2,0-0.2,0.1c-0.1,0.1-0.1,0.1-0.1,0.2s0,0.1,0.1,0.2s0.1,0.1,0.2,0.1
							s0.2,0,0.2-0.1c0.1-0.1,0.1-0.1,0.1-0.2s0-0.1-0.1-0.2C10,41.9,9.9,41.9,9.8,41.9z M10.7,41.9c-0.1,0-0.1,0-0.2,0.1
							c0,0-0.1,0.1-0.1,0.2s0,0.1,0.1,0.2c0,0,0.1,0.1,0.2,0.1s0.1,0,0.2-0.1c0,0,0.1-0.1,0.1-0.2s0-0.1-0.1-0.2
							C10.9,41.9,10.8,41.9,10.7,41.9z"/>
						<path id="_x38_02-0" class="st2" d="M10.2,43.3c0.4,0,0.7,0.1,0.9,0.2c0.2,0.1,0.2,0.4,0.2,0.7c0,0.1,0,0.3-0.1,0.4
							c0,0.1-0.1,0.2-0.1,0.2c-0.1,0.1-0.1,0.1-0.2,0.1S10.8,45,10.7,45c-0.2,0-0.3,0.1-0.5,0.1c-0.4,0-0.7-0.1-0.9-0.2
							C9.1,44.8,9,44.5,9,44.2c0-0.2,0-0.3,0.1-0.4s0.1-0.2,0.3-0.3c0.1-0.1,0.2-0.1,0.3-0.1C9.9,43.3,10.1,43.3,10.2,43.3z
							 M10.2,43.9c-0.3,0-0.5,0-0.6,0.1c-0.1,0-0.1,0.1-0.1,0.2s0,0.1,0.1,0.2c0,0,0.1,0.1,0.2,0.1s0.2,0,0.4,0c0.3,0,0.5,0,0.6-0.1
							c0.1,0,0.1-0.1,0.1-0.2s0-0.2-0.1-0.2C10.7,43.9,10.5,43.9,10.2,43.9z"/>
						<path id="_x38_02-2" class="st2" d="M9.2,47v-1.8c0.2,0,0.3,0.1,0.5,0.2s0.3,0.3,0.6,0.6c0.1,0.2,0.2,0.3,0.3,0.3
							c0.1,0,0.1,0.1,0.2,0.1s0.1,0,0.2-0.1c0,0,0.1-0.1,0.1-0.2s0-0.1-0.1-0.2c0,0-0.1-0.1-0.3-0.1v-0.6c0.2,0,0.3,0.1,0.4,0.1
							c0.1,0.1,0.2,0.1,0.2,0.3c0.1,0.1,0.1,0.3,0.1,0.5s0,0.4-0.1,0.5c0,0.1-0.1,0.2-0.2,0.3C11,47,10.9,47,10.8,47
							c-0.1,0-0.3,0-0.4-0.1s-0.3-0.2-0.4-0.4c-0.1-0.1-0.1-0.2-0.2-0.2l-0.1-0.1v0.9L9.2,47L9.2,47z"/>
						<path id="_x38_02-dot" class="st2" d="M9.8,47.3v0.6H9.2v-0.6H9.8z"/>
						<path id="_x38_02-1" class="st2" d="M11.3,49.6H9.1V49h1.4c-0.1-0.1-0.1-0.2-0.2-0.3c0-0.1-0.1-0.2-0.1-0.3h0.5
							c0.1,0.2,0.1,0.4,0.2,0.5s0.2,0.2,0.3,0.3L11.3,49.6L11.3,49.6z"/>
						<path id="_x38_02-1_1_" class="st2" d="M11.3,51.6H9.1V51h1.4c-0.1-0.1-0.1-0.2-0.2-0.3c0-0.1-0.1-0.2-0.1-0.3h0.5
							c0.1,0.2,0.1,0.4,0.2,0.5s0.2,0.2,0.3,0.3L11.3,51.6L11.3,51.6z"/>
						<path id="_x38_02-b" class="st2" d="M11.3,52.3v0.6h-0.7c0.1,0.1,0.1,0.1,0.1,0.2s0,0.2,0,0.3c0,0.2-0.1,0.3-0.2,0.5
							c-0.1,0.1-0.3,0.2-0.6,0.2c-0.2,0-0.3,0-0.4-0.1s-0.2-0.1-0.3-0.2c-0.1-0.1-0.1-0.2-0.1-0.3c0-0.1,0-0.2,0.1-0.3
							c0-0.1,0.1-0.1,0.2-0.2H9.2v-0.6L11.3,52.3L11.3,52.3z M9.9,52.9c-0.1,0-0.2,0-0.3,0.1c-0.1,0.1-0.1,0.1-0.1,0.2
							s0,0.1,0.1,0.2c0.1,0,0.2,0.1,0.3,0.1c0.1,0,0.2,0,0.3-0.1c0.1,0,0.1-0.1,0.1-0.2s0-0.1-0.1-0.2C10.1,53,10.1,52.9,9.9,52.9z"
							/>
						<path id="_x38_02-slash" class="st2" d="M11.3,54.7V55l-2.2-0.5v-0.3L11.3,54.7z"/>
						<path id="_x38_02-g" class="st2" d="M10.7,56.3v0.6H9.2H9.1c-0.1,0-0.2,0-0.3-0.1c-0.1,0-0.2-0.1-0.2-0.2
							c-0.1-0.1-0.1-0.2-0.1-0.3c0-0.1,0-0.2,0-0.4c0-0.3,0-0.5,0.1-0.6s0.2-0.2,0.4-0.2c0,0,0,0,0.1,0L9,55.7c-0.1,0-0.1,0-0.1,0.1
							c0,0,0,0.1,0,0.2s0,0.1,0.1,0.2c0,0,0.1,0.1,0.2,0.1h0.2c-0.1-0.1-0.1-0.1-0.1-0.2s-0.1-0.2-0.1-0.3c0-0.2,0.1-0.4,0.3-0.5
							c0.1-0.1,0.3-0.1,0.5-0.1s0.4,0.1,0.6,0.2c0.1,0.1,0.2,0.3,0.2,0.5C10.8,56,10.8,56.1,10.7,56.3c0,0-0.1,0.1-0.2,0.1
							L10.7,56.3L10.7,56.3z M10,55.7c-0.1,0-0.2,0-0.2,0.1c-0.1,0-0.1,0.1-0.1,0.2s0,0.1,0.1,0.2c0.1,0,0.1,0.1,0.3,0.1
							s0.2,0,0.3-0.1c0.1-0.1,0.1-0.1,0.1-0.2s0-0.1-0.1-0.2C10.2,55.7,10.1,55.7,10,55.7z"/>
						<path id="_x38_02-slash_1_" class="st2" d="M11.3,57.5v0.3l-2.2-0.5V57L11.3,57.5z"/>
						<path id="_x38_02-n" class="st2" d="M10.7,58v0.6h-0.3c0.1,0.1,0.2,0.2,0.2,0.3c0,0.1,0.1,0.2,0.1,0.3c0,0.2,0,0.3-0.1,0.4
							s-0.3,0.1-0.5,0.1h-1v-0.6H10c0.1,0,0.2,0,0.2-0.1c0,0,0.1-0.1,0.1-0.2s0-0.1-0.1-0.2c-0.1,0-0.2-0.1-0.3-0.1H9.2v-0.6
							L10.7,58L10.7,58z"/>
					</g>
				</g>
				<g transform="scale(0.01, 0.01) translate(1900,2750) rotate(90)">
					<g id="fcc-logo">
						<path id="fcc-logo-f" class="st2" d="M-40.4,339.8V199.5H100h216.2V59.1H-40.4c-77.6,0-140.4,62.8-140.4,140.4v777.9h140.4
							V578.1h280.8V453.9H-40.4V339.8z"/>
						<path id="fcc-logo-c-outer" class="st2" d="M957.2,708.4v-0.2C902,781.1,815.3,829.1,716.7,829.1
							c-167,0-302.5-135.4-302.5-302.5c0-167,135.4-302.5,302.5-302.5c98.6,0,185.3,47.8,240.5,120.9h171.4
							C1058.7,186.7,900.8,76,716.7,76C467.7,76,266,277.8,266,526.8c0,248.9,201.8,450.7,450.7,450.7c184.2,0,342-110.8,412-269
							L957.2,708.4L957.2,708.4z"/>
						<path id="fcc-logo-c-inner" class="st2" d="M713.5,396.1c40.3,0,75.9,18.7,99.9,47.4h160.4
							c-35.4-110.6-137.9-191.3-260.3-191.3c-151.5,0-274.4,122.9-274.4,274.4c0,151.6,122.9,274.5,274.4,274.5
							c122.4,0,224.8-80.7,260.2-191.3H813.3v-0.2c-23.9,28.7-59.5,47.4-99.8,47.4c-72,0-130.5-58.4-130.5-130.6
							C583,454.6,641.4,396.1,713.5,396.1z"/>
					</g>
				</g>
			</g>
		</g>
	</g>
</g>
<g transform="matrix(1, 0, 0, 1, 0, 17)">
	<g id="left-labels">
		<g>
			<path id="RST" class="st10" d="M11.2,6.8H8.9 M9,6.8V5.7 M9,5.7l0.4-0.4 M9.4,5.3h0.8 M10.1,5.3l0.3,0.4 M10.5,5.7v1.1 M10.5,6.1
				l0.8-0.8 M9.4,3.1L9,3.5 M9,3.4v0.7 M9,4.2l0.4,0.4 M9.4,4.5h0.4 M9.8,4.5l0.4-0.4 M10.1,4.2V3.5 M10.1,3.4L10.4,3 M10.5,3.1h0.4
				 M10.9,3.1l0.4,0.4 M11.2,3.4v0.7 M11.2,4.2l-0.4,0.4 M11.2,1.5H8.9 M9,2.3V0.8"/>
			<path id="A0" class="st10" d="M11.2,12.9H9.7 M9.7,12.9L9,12.2 M9,12.2l0.7-0.8 M9.7,11.4h1.5 M10.1,12.9v-1.5 M10.9,10.6H9.3
				 M9.3,10.6L9,10.2 M9,10.2V9.5 M9,9.5l0.3-0.4 M9.3,9.1h1.6 M10.9,9.1l0.3,0.4 M11.2,9.5v0.7 M11.2,10.2l-0.3,0.4 M10.9,10.6
				L9.4,9.1"/>
			<path id="D0" class="st10" d="M9,20.1h2.3 M11.2,20.1V19 M11.2,19l-0.4-0.4 M10.9,18.6H9.4 M9.4,18.6L9,19 M9,19v1.1 M10.9,17.8
				H9.4 M9.4,17.8L9,17.4 M9,17.4v-0.7 M9,16.7l0.4-0.4 M9.4,16.3h1.5 M10.9,16.3l0.4,0.4 M11.2,16.7v0.7 M11.2,17.4l-0.4,0.4
				 M10.9,17.8l-1.5-1.5"/>
			<path id="D5" class="st10" d="M9,27.3h2.3 M11.2,27.3v-1.1 M11.2,26.2l-0.4-0.4 M10.9,25.8H9.4 M9.4,25.8L9,26.2 M9,26.2v1.1
				 M9,23.5V25 M9,25h1.1 M10.1,25l-0.4-0.8 M9.7,24.2v-0.3 M9.7,23.9l0.4-0.4 M10.1,23.5h0.8 M10.9,23.5l0.4,0.4 M11.2,23.9v0.7
				 M11.2,24.6L10.8,25"/>
			<path id="D6" class="st10" d="M9,34.5h2.3 M11.2,34.5v-1.1 M11.2,33.4L10.8,33 M10.9,33H9.4 M9.4,33L9,33.4 M9,33.4v1.1 M9,30.7
				l0.4,0.7 M9.4,31.4l0.8,0.8 M10.1,32.2h0.7 M10.9,32.2l0.4-0.4 M11.2,31.8v-0.7 M11.2,31.1l-0.4-0.4 M10.9,30.7h-0.4 M10.5,30.7
				l-0.3,0.4 M10.1,31.1v1.1"/>
			<path id="D7" class="st10" d="M9,41.7h2.3 M11.2,41.7v-1.1 M11.2,40.6l-0.4-0.4 M10.9,40.2H9.4 M9.4,40.2L9,40.6 M9,40.6v1.1
				 M9,39.4v-1.5 M9,37.9h0.4 M9.4,37.9l1.5,1.5 M10.9,39.4h0.4"/>
			<path id="D8" class="st10" d="M9,48.9h2.3 M11.2,48.9v-1.1 M11.2,47.8l-0.4-0.4 M10.9,47.4H9.4 M9.4,47.4L9,47.8 M9,47.8v1.1
				 M9.4,46.6L9,46.2 M9,46.2v-0.7 M9,45.5l0.4-0.4 M9.4,45.1h0.4 M9.8,45.1l0.4,0.4 M10.1,45.5l0.4-0.4 M10.5,45.1h0.3 M10.9,45.1
				l0.4,0.4 M11.2,45.5v0.7 M11.2,46.2l-0.4,0.4 M10.9,46.6h-0.3 M10.5,46.6l-0.4-0.4 M10.1,46.2l-0.4,0.4 M9.8,46.6H9.4 M10.1,46.2
				v-0.7"/>
			<path id="_x33_V3" class="st10" d="M9.4,57.2L9,56.8 M9,56.8v-0.7 M9,56.1l0.4-0.4 M9.4,55.7h0.3 M9.7,55.7l0.4,0.4 M10.1,56.1
				v0.4 M10.1,56.1l0.4-0.4 M10.5,55.7h0.4 M10.9,55.7l0.4,0.4 M11.2,56.1v0.7 M11.2,56.8l-0.4,0.4 M9,54.9h1.5 M10.5,54.9l0.8-0.8
				 M11.2,54.2l-0.8-0.7 M10.5,53.5H9 M9.4,52.7L9,52.3 M9,52.3v-0.8 M9,51.5l0.4-0.3 M9.4,51.2h0.3 M9.7,51.2l0.4,0.3 M10.1,51.5
				v0.4 M10.1,51.5l0.4-0.3 M10.5,51.2h0.4 M10.9,51.2l0.4,0.3 M11.2,51.5v0.8 M11.2,52.3l-0.4,0.4"/>
		</g>
	</g>
</g>
<g transform="matrix(1, 0, 0, 1, 0, 17)">
	<g id="pads-left">
		<circle id="connector0pin_1_" class="st11" cx="3.9" cy="3.9" r="2"/>
		<circle id="connector1pin_1_" class="st11" cx="3.9" cy="11.1" r="2"/>
		<circle id="connector2pin_1_" class="st11" cx="3.9" cy="18.3" r="2"/>
		<circle id="connector3pin_1_" class="st11" cx="3.9" cy="25.5" r="2"/>
		<circle id="connector4pin_1_" class="st11" cx="3.9" cy="32.7" r="2"/>
		<circle id="connector5pin_1_" class="st11" cx="3.9" cy="39.9" r="2"/>
		<circle id="connector6pin" class="st11" cx="3.9" cy="47.1" r="2"/>
		<circle id="connector7pin" class="st11" cx="3.9" cy="54.3" r="2"/>
	</g>
</g>
<g id="g4679" transform="matrix(0.93519627,0,0,0.93519627,3.5069859e-6,-8.7604957e-5)">
	<rect id="rect5158" x="101.5" y="16" class="st12" width="9" height="40.3"/>
	<rect id="rect5156" x="190.4" y="16" class="st12" width="9.3" height="32.6"/>
	<path id="rect5140" class="st13" d="M187.5,66.5c1.6,0,2.9-1.3,2.9-3V9.1c0-1.7-1.3-3-2.9-3h-10.7l-1.1-1.7h-27.6
		c-0.4,0-1.3,1.7-1.3,1.7h-33.3c-1.6,0-2.9,1.3-2.9,3v54.4c0,1.7,1.3,3,2.9,3H187.5z M140.5,64.2h-29.6V38.3h29.6V64.2z M127.8,30.2
		c-4.2,0-7.6-3.5-7.6-7.7c0-4.3,3.4-7.7,7.6-7.7l0,0c4.2,0,7.6,3.5,7.6,7.7C135.3,26.7,132,30.2,127.8,30.2z"/>
	<ellipse id="circle5144" class="st14" cx="127.8" cy="22.4" rx="5.6" ry="5.8"/>
	<rect id="rect5152" x="112.5" y="39.7" class="st15" width="26.5" height="23.1"/>
	<rect id="rect5154" x="114.1" y="41.1" class="st16" width="23.2" height="20.3"/>
	<g id="g5238" transform="matrix(0,-1.0186405,1.0186405,0,-0.47171,65.07373)">
		
			<rect id="rect5206" x="39.8" y="190" transform="matrix(-2.535182e-06 -1 1 -2.535182e-06 -148.3578 235.6942)" class="st17" width="7.8" height="4"/>
		<polygon id="polygon5208" class="st17" points="47.7,190.1 47.7,194 45.7,195.9 45.7,188.1 		"/>
		<polygon id="polygon5210" class="st17" points="41.7,188.1 41.7,195.9 39.7,194 39.7,190.1 		"/>
		
			<rect id="rect5212" x="42.8" y="191.4" transform="matrix(-2.535182e-06 -1 1 -2.535182e-06 -148.4134 235.7418)" class="st18" width="1.7" height="1.4"/>
		
			<rect id="rect5214" x="32.1" y="190" transform="matrix(-2.535182e-06 -1 1 -2.535182e-06 -156.0578 227.966)" class="st17" width="7.8" height="4"/>
		<polygon id="polygon5216" class="st17" points="40,190.1 40,194 38,195.9 38,188.1 		"/>
		<polygon id="polygon5218" class="st17" points="34,188.1 34,195.9 32,194 32,190.1 		"/>
		
			<rect id="rect5220" x="35.1" y="191.4" transform="matrix(-2.535182e-06 -1 1 -2.535182e-06 -156.1165 228.0213)" class="st18" width="1.7" height="1.4"/>
		
			<rect id="rect5222" x="24.3" y="190" transform="matrix(-2.535182e-06 -1 1 -2.535182e-06 -163.7567 220.2458)" class="st17" width="7.8" height="4"/>
		<polygon id="polygon5224" class="st17" points="32.2,190.1 32.2,194 30.3,195.9 30.3,188.1 		"/>
		<polygon id="polygon5226" class="st17" points="26.3,188.1 26.3,195.9 24.3,194 24.3,190.1 		"/>
		
			<rect id="rect5228" x="27.4" y="191.4" transform="matrix(-2.535182e-06 -1 1 -2.535182e-06 -163.8145 220.2953)" class="st18" width="1.7" height="1.4"/>
		
			<rect id="rect5230" x="16.6" y="190" transform="matrix(-2.535182e-06 -1 1 -2.535182e-06 -171.4589 212.5177)" class="st17" width="7.8" height="4"/>
		<polygon id="polygon5232" class="st17" points="24.5,190.1 24.5,194 22.5,195.9 22.5,188.1 		"/>
		<polygon id="polygon5234" class="st17" points="18.6,188.1 18.6,195.9 16.6,194 16.6,190.1 		"/>
		
			<rect id="rect5236" x="19.7" y="191.3" transform="matrix(-2.535182e-06 -1 1 -2.535182e-06 -171.5137 212.5733)" class="st18" width="1.7" height="1.4"/>
	</g>
	<rect id="rect5240" x="102.2" y="18.5" class="st17" width="7.9" height="4.1"/>
	<polygon id="polygon5242" class="st17" points="108.1,16.5 110.1,18.5 102.2,18.5 104.2,16.5 	"/>
	<polygon id="polygon5244" class="st17" points="110.1,22.6 108.1,24.6 104.2,24.6 102.2,22.6 	"/>
	<rect id="rect5246" x="105.2" y="19.8" class="st18" width="1.8" height="1.4"/>
	<rect id="rect5248" x="102.2" y="26.4" class="st17" width="7.9" height="4.1"/>
	<polygon id="polygon5250" class="st17" points="108.1,24.4 110.1,26.4 102.2,26.4 104.2,24.4 	"/>
	<polygon id="polygon5252" class="st17" points="110.1,30.4 108.1,32.5 104.2,32.5 102.2,30.4 	"/>
	<rect id="rect5254" x="105.2" y="27.7" class="st18" width="1.8" height="1.4"/>
	<rect id="rect5256" x="102.2" y="34.2" class="st17" width="7.9" height="4.1"/>
	<polygon id="polygon5258" class="st17" points="108.1,32.2 110.1,34.2 102.2,34.2 104.2,32.2 	"/>
	<polygon id="polygon5260" class="st17" points="110.1,38.3 108.1,40.3 104.2,40.3 102.2,38.3 	"/>
	<rect id="rect5262" x="105.2" y="35.6" class="st18" width="1.8" height="1.4"/>
	<g id="g5650" transform="translate(-272.94141,-50.9592)">
		<rect id="rect5264" x="375.1" y="93.1" class="st17" width="7.9" height="4.1"/>
		<polygon id="polygon5266" class="st17" points="381.1,91 383,93.1 375.1,93.1 377.1,91 		"/>
		<polygon id="polygon5268" class="st17" points="383,97.1 381.1,99.1 377.1,99.1 375.1,97.1 		"/>
		<rect id="rect5270" x="378.2" y="94.4" class="st18" width="1.8" height="1.4"/>
	</g>
	<g id="g5660" transform="translate(-272.94141,-60.593136)">
		<rect id="rect5652" x="375.1" y="110.6" class="st17" width="7.9" height="4.1"/>
		<polygon id="polygon5654" class="st17" points="375.1,110.6 377.1,108.5 381.1,108.5 383,110.6 		"/>
		<polygon id="polygon5656" class="st17" points="377.1,116.6 375.1,114.6 383,114.6 381.1,116.6 		"/>
		<rect id="rect5658" x="378.2" y="111.9" class="st18" width="1.8" height="1.4"/>
	</g>
</g>
<g id="centered">
	<g id="esp-placeholder" class="st19">
		<rect x="13.6" y="0" class="st20" width="45.4" height="68"/>
	</g>
</g>
<g transform="matrix(1, 0, 0, 1, 47, 79.9999)">
	<g id="label-logo">
		<path id="label-logo-d1" class="st21" d="M4.5,1v4.2 M4.5,5.2h2.1 M6.6,5.2l0.7-0.7 M7.3,4.5V1.7 M7.3,1.7L6.6,1 M6.6,1H4.5
			 M8.7,2.4L10.2,1 M10.2,1v4.2 M8.7,5.2h2.8"/>
		<path id="label-logo-mini" class="st21" d="M12.8,4.6V2.5 M12.8,2.5h0.5 M13.3,2.5L13.7,3 M13.8,3.1v1.5 M13.8,3.1l0.5-0.5
			 M14.3,2.5L14.8,3 M14.9,3.1v1.5 M15.9,2.5h0.5 M16.5,2.5v2.1 M15.9,4.6H17 M16.5,1v0.5 M18.1,4.6V2.5 M18.1,2.5h1.5 M19.6,2.5
			L20.1,3 M20.2,3.1v1.5 M21.3,2.5h0.5 M21.8,2.5v2.1 M21.3,4.6h1 M21.8,1v0.5"/>
		<path id="label-logo-wemos_cc" class="st21" d="M7.2,10.6H6.4 M6.4,10.6L6,10.2 M6,10.2V9.4 M6,9.4L6.4,9 M6.4,9h0.8 M7.2,9
			l0.4,0.3 M7.6,9.4v0.4 M7.6,9.8H6 M8.5,10.6V8.2 M8.5,8.2L9.3,9 M9.3,9l0.8-0.8 M10.1,8.2v2.4 M11.5,10.6h0.8 M12.3,10.6l0.3-0.4
			 M12.6,10.2V9.4 M12.6,9.4L12.3,9 M12.3,9h-0.8 M11.5,9L11,9.4 M11,9.4v0.8 M11,10.2l0.4,0.4 M13.6,10.6h1.2 M14.8,10.6l0.4-0.4
			 M15.2,10.2l-0.4-0.4 M14.8,9.8H14 M14,9.8l-0.3-0.4 M13.6,9.4L14,9 M14,9h1.2 M16.1,10.6v-0.4 M16.1,10.2h0.4 M16.6,10.2v0.4
			 M16.6,10.6h-0.4 M19.1,9h-1.2 M17.8,9l-0.4,0.3 M17.4,9.4v0.8 M17.4,10.2l0.4,0.4 M17.8,10.6H19 M21.6,9h-1.2 M20.4,9L20,9.4
			 M20,9.4v0.8 M20,10.2l0.3,0.4 M20.4,10.6h1.2 M4.2,7c2.5,3.5-0.5,5.2-1.2,3.2c-0.6,2-3.8,0.6-1.8-3.2"/>
	</g>
</g>
<g>
	<line class="st22" x1="206.9" y1="19.3" x2="206.9" y2="69.7"/>
	<line class="st23" x1="206.9" y1="19.3" x2="206.9" y2="69.7"/>
</g>
<g>
	<line class="st22" x1="182.4" y1="19.1" x2="206.9" y2="19.3"/>
	<line class="st23" x1="182.4" y1="19.1" x2="206.9" y2="19.3"/>
</g>
<g>
	<line class="st24" x1="199.5" y1="26.1" x2="200" y2="62.2"/>
	<line class="st25" x1="199.5" y1="26.1" x2="200" y2="62.2"/>
</g>
<g>
	<line class="st24" x1="182.4" y1="26.3" x2="199.5" y2="26.1"/>
	<line class="st25" x1="182.4" y1="26.3" x2="199.5" y2="26.1"/>
</g>
<g transform="matrix(1, 0, 0, 1, 64.7999, 17)">
	<g id="pads-right">
		<circle id="connector8pin" class="st11" cx="3.9" cy="54.1" r="2"/>
		<circle id="connector9pin" class="st11" cx="3.9" cy="46.9" r="2"/>
		<circle id="connector10pin" class="st11" cx="3.9" cy="39.7" r="2"/>
		<circle id="connector11pin" class="st11" cx="3.9" cy="32.5" r="2"/>
		<circle id="connector12pin" class="st11" cx="3.9" cy="25.3" r="2"/>
		<circle id="connector13pin" class="st11" cx="3.9" cy="18.1" r="2"/>
		<circle id="connector14pin" class="st11" cx="3.9" cy="10.9" r="2"/>
		<circle id="connector15pin" class="st11" cx="3.9" cy="3.7" r="2"/>
	</g>
</g>
<g transform="matrix(1, 0, 0, 1, 50.4, 17)">
	<g id="right-labels">
		<g>
			<path id="_x35_V" class="st10" d="M10.6,55v1.5 M10.6,56.5h1.1 M11.7,56.5l-0.4-0.7 M11.3,55.8v-0.4 M11.3,55.4l0.4-0.4 M11.7,55
				h0.8 M12.5,55l0.4,0.4 M12.9,55.4v0.7 M12.9,56.1l-0.4,0.4 M10.6,54.3h1.5 M12.1,54.3l0.8-0.8 M12.9,53.5l-0.8-0.7 M12.1,52.8
				h-1.5"/>
			<path id="G" class="st10" d="M11,46.7l-0.4,0.4 M10.6,47.1v0.7 M10.6,47.8l0.4,0.4 M11,48.2h1.5 M12.5,48.2l0.4-0.4 M12.9,47.8
				v-0.7 M12.9,47.1l-0.4-0.4 M12.5,46.7h-0.8 M11.7,46.7v0.8"/>
			<path id="D4" class="st10" d="M10.6,42.1h2.3 M12.9,42.1V41 M12.9,41l-0.4-0.4 M12.5,40.6H11 M11,40.6L10.6,41 M10.6,41v1.1
				 M12.9,38.8h-2.3 M10.6,38.8l1.2,1.1 M11.8,39.9v-1.5"/>
			<path id="D3" class="st10" d="M10.6,34.9h2.3 M12.9,34.9v-1.1 M12.9,33.8l-0.4-0.4 M12.5,33.4H11 M11,33.4l-0.4,0.4 M10.6,33.8
				v1.1 M11,32.7l-0.4-0.4 M10.6,32.3v-0.7 M10.6,31.6l0.4-0.4 M11,31.2h0.3 M11.3,31.2l0.4,0.4 M11.7,31.6v0.3 M11.7,31.6l0.4-0.4
				 M12.1,31.2h0.4 M12.5,31.2l0.4,0.4 M12.9,31.6v0.7 M12.9,32.3l-0.4,0.4"/>
			<path id="D2" class="st10" d="M10.6,27.7h2.3 M12.9,27.7v-1.1 M12.9,26.6l-0.4-0.4 M12.5,26.2H11 M11,26.2l-0.4,0.4 M10.6,26.6
				v1.1 M12.9,24v1.5 M12.9,25.5L11.4,24 M11.4,24H11 M11,24l-0.4,0.4 M10.6,24.4v0.7 M10.6,25.1l0.4,0.4"/>
			<path id="D1" class="st10" d="M10.7,20.5h2.2 M12.9,20.5v-1.1 M12.9,19.4L12.6,19 M12.5,19H11 M11,19l-0.3,0.4 M10.7,19.4v1.1
				 M11.4,18.3l-0.7-0.8 M10.7,17.5h2.2 M12.9,18.3v-1.5"/>
			<path id="RX" class="st10" d="M12.9,13.3h-2.3 M10.6,13.3v-1.1 M10.6,12.2l0.4-0.4 M11,11.8h0.8 M11.8,11.8l0.3,0.4 M12.1,12.2
				v1.1 M12.1,12.6l0.8-0.8 M10.6,11.1l2.3-1.5 M10.6,9.6l2.3,1.5"/>
			<path id="TX" class="st10" d="M12.9,5.4h-2.2 M10.7,6.1V4.6 M10.7,3.9l2.2-1.5 M10.7,2.4l2.2,1.5"/>
		</g>
	</g>
</g>
<g transform="matrix(1, 0, 0, 1, 47, 79.9999)">
	<g id="label-logo_1_">
		<path id="label-logo-d1_1_" class="st21" d="M4.5,1.2v4.2 M4.5,5.4h2.1 M6.5,5.4l0.7-0.7 M7.2,4.7V1.9 M7.2,1.9L6.5,1.2 M6.5,1.2
			H4.4 M8.7,2.6l1.4-1.4 M10.1,1.2v4.2 M8.7,5.4h2.8"/>
		<path id="label-logo-mini_1_" class="st21" d="M12.8,4.8V2.7 M12.8,2.7h0.5 M13.3,2.7l0.5,0.5 M13.7,3.2v1.5 M13.7,3.2l0.5-0.5
			 M14.3,2.7l0.5,0.5 M14.8,3.2v1.5 M15.9,2.7h0.5 M16.4,2.7v2.1 M15.9,4.8H17 M16.4,1.2v0.5 M18.1,4.8V2.7 M18.1,2.7h1.5 M19.6,2.7
			l0.5,0.5 M20.1,3.2v1.5 M21.2,2.7h0.5 M21.8,2.7v2.1 M21.2,4.8h1 M21.8,1.2v0.5"/>
		<path id="label-logo-wemos_cc_1_" class="st21" d="M7.1,10.8H6.3 M6.4,10.8L6,10.4 M6,10.4V9.6 M6,9.5l0.4-0.3 M6.4,9.2h0.8
			 M7.1,9.2l0.4,0.3 M7.5,9.5v0.4 M7.5,9.9H5.9 M8.5,10.8V8.4 M8.5,8.4l0.8,0.8 M9.3,9.2l0.8-0.8 M10.1,8.4v2.4 M11.4,10.8h0.8
			 M12.2,10.8l0.3-0.4 M12.6,10.4V9.6 M12.6,9.5l-0.3-0.3 M12.2,9.2h-0.8 M11.4,9.2L11,9.5 M11,9.5v0.8 M11,10.4l0.4,0.4 M13.6,10.8
			h1.2 M14.8,10.8l0.4-0.4 M15.2,10.4L14.8,10 M14.8,9.9H14 M13.9,9.9l-0.3-0.4 M13.6,9.5l0.3-0.3 M13.9,9.2h1.2 M16.1,10.8v-0.4
			 M16.1,10.4h0.4 M16.5,10.4v0.4 M16.5,10.8h-0.4 M19,9.2h-1.2 M17.8,9.2l-0.4,0.3 M17.4,9.5v0.8 M17.4,10.4l0.4,0.4 M17.8,10.8H19
			 M21.5,9.2h-1.2 M20.3,9.2L20,9.5 M20,9.5v0.8 M20,10.4l0.3,0.4 M20.3,10.8h1.2 M4.1,7.2c2.5,3.5-0.5,5.2-1.2,3.2
			c-0.6,2-3.8,0.6-1.8-3.2"/>
	</g>
</g>
<g id="usb-pads">
	<g id="bl">
		<circle id="pad-a" class="st1" cx="26" cy="89.2" r="1.5"/>
		<circle id="pad-b" class="st1" cx="26" cy="90.2" r="1.5"/>
		<circle id="pad-c" class="st1" cx="26" cy="89.7" r="1.5"/>
		<circle id="pin_2_" class="st26" cx="26" cy="89.7" r="0.7"/>
	</g>
	<g id="br">
		<circle id="pad-a_1_" class="st1" cx="43" cy="89.2" r="1.5"/>
		<circle id="pad-b_1_" class="st1" cx="43" cy="90.2" r="1.5"/>
		<circle id="pad-c_1_" class="st1" cx="43" cy="89.7" r="1.5"/>
		<circle id="pin_3_" class="st26" cx="43" cy="89.7" r="0.8"/>
	</g>
	<g id="tl">
		<circle id="pad-a_2_" class="st1" cx="28" cy="80.2" r="1.5"/>
		<circle id="pad-b_2_" class="st1" cx="29" cy="80.2" r="1.5"/>
		<circle id="pad-c_2_" class="st1" cx="28.5" cy="80.2" r="1.5"/>
		<circle id="pin_4_" class="st26" cx="28.5" cy="80.2" r="0.7"/>
	</g>
	<g id="tr">
		<circle id="pad-a_3_" class="st1" cx="41" cy="80.2" r="1.5"/>
		<circle id="pad-b_3_" class="st1" cx="40" cy="80.2" r="1.5"/>
		<circle id="pad-c_3_" class="st1" cx="40.5" cy="80.2" r="1.5"/>
		<circle id="pin_5_" class="st26" cx="40.5" cy="80.2" r="0.8"/>
	</g>
</g>
<g>
	<line class="st22" x1="206.9" y1="69.7" x2="68.7" y2="71"/>
	<line class="st23" x1="206.9" y1="69.7" x2="68.7" y2="71"/>
</g>
<g>
	<line class="st24" x1="200" y1="62.2" x2="68.7" y2="63.8"/>
	<line class="st25" x1="200" y1="62.2" x2="68.7" y2="63.8"/>
</g>
<g>
	<line class="st27" x1="99.2" y1="33.5" x2="68.7" y2="42.2"/>
	<line class="st28" x1="99.2" y1="33.5" x2="68.7" y2="42.2"/>
</g>
<g>
	<line class="st29" x1="99.2" y1="26.3" x2="68.7" y2="35"/>
	<line class="st30" x1="99.2" y1="26.3" x2="68.7" y2="35"/>
</g>
</svg>
